<svg width="0" height="0" class="hidden">
  <symbol
    fill="currentColor"
    xmlns="http://www.w3.org/2000/svg"
    viewBox="0 0 189 211"
    id="american"
  >
    <g id="Group">
      <g id="Group_2">
        <path
          id="Vector"
          d="M185.9 155.07C178.92 147.05 175.38 136.85 174.19 126.44C173.72 122.22 166.95 120.04 161.54 118.37C160.97 132.48 157.22 145.7 151.18 156.9H151.13C150.77 157.63 150.4 158.31 150.04 158.98C150.46 158.3 150.82 157.57 151.19 156.9C159.16 160.65 164.93 165.75 159.16 172.05C156.56 174.86 153.85 177.57 150.83 180.02C144.06 185.59 139.22 188.4 149.11 193.87C154.84 197.05 157.75 202.51 159.47 208.6C159.78 209.64 158.27 210.84 157.54 209.8C152.13 201.83 141.61 200.85 136.66 193.14C134.89 190.33 136.45 188.56 137.96 186.37C139.89 183.61 154.72 168.93 150.82 166.33C149.57 165.5 148.32 164.66 147.02 163.83C147.85 162.58 148.63 161.33 149.41 160.03C149.2 160.34 148.99 160.65 148.73 161.02C148.11 161.96 147.38 162.79 146.8 163.73C146.85 163.78 146.96 163.83 147.01 163.83C134.67 182.21 115.56 194.03 94.1701 194.03C72.8801 194.03 53.9301 182.37 41.5401 164.15C41.6401 164.1 41.8001 163.99 41.9001 163.94C41.0101 162.9 40.18 161.81 39.35 160.71C40.03 161.86 40.7601 163 41.5401 164.15C40.3901 164.88 39.25 165.61 38.16 166.34C34.26 168.94 49.0901 183.62 51.0201 186.38C52.5301 188.57 54.0901 190.34 52.3201 193.15C47.3701 200.86 36.9101 201.84 31.4401 209.81C30.7101 210.85 29.2001 209.65 29.5101 208.61C31.2301 202.52 34.1401 197.05 39.8701 193.88C49.7601 188.41 44.9201 185.6 38.1501 180.03C35.1801 177.58 32.4201 174.88 29.8201 172.06C24.3501 166.07 29.9201 160.81 37.3201 157.12C31.1801 145.87 27.4301 132.65 26.7501 118.49C21.5401 120.16 15.1901 122.45 14.7801 126.46C13.5801 136.87 10.0401 147.08 3.07008 155.09C2.13008 156.18 0.360099 154.67 1.0901 153.53C5.3101 146.4 7.75007 139.32 8.69007 131.14C9.21007 126.82 8.17007 122.03 10.5601 118.18C12.4901 115.16 19.6201 114.59 22.6401 113.6C23.6301 113.29 25.3501 112.82 26.6501 112.45C26.9101 95.53 31.6501 79.86 39.4601 67.1C37.1701 66.06 34.8301 64.97 32.4801 63.77C29.1001 62.05 25.03 58.72 24.1 54.82C22.54 48 26.8101 42.17 28.6301 35.92C32.1201 23.69 32.4801 14.05 29.3601 1.72C28.8401 -0.359999 31.5501 -0.469999 32.3801 1.1C38.6801 13.44 37.2201 24.84 35.4001 38.17C34.1001 48.01 28.4201 55.61 40.4501 62.27C41.0201 62.58 41.4901 62.84 42.0101 63.21C44.7701 59.25 47.89 55.56 51.22 52.28C50.6 48.69 50.9601 45.56 52.0501 42.75C54.0301 44.83 57.3101 45.25 60.7401 44.47C63.2401 44 65.8401 42.86 68.0301 41.4C69.1201 40.67 70.2201 39.73 71.2101 38.75C73.9201 35.94 75.95 32.29 76.1 28.44C76.15 26.93 75.79 25.68 75.22 24.64C75.27 24.64 75.3801 24.59 75.4301 24.59C78.2401 19.44 83.7601 15.22 90.3701 14.59C95.1601 14.17 100.52 14.8 104.32 17.66C106.77 19.48 108.28 21.67 109.47 23.96C109.47 24.01 109.42 24.01 109.42 24.06C109.11 24.79 108.8 25.62 108.64 26.56C107.96 30.78 110.05 34.37 112.91 37.13C113.59 37.86 114.37 38.48 115.15 39.06C117.23 40.62 120.82 41.98 124.57 42.55C128.94 43.28 133.42 42.81 135.66 40.16C137.48 44.06 138.37 48.49 137.33 52.5C140.66 55.78 143.73 59.48 146.49 63.43C147.17 63.07 147.84 62.65 148.52 62.28C160.55 55.62 154.87 48.02 153.57 38.18C151.75 24.85 150.29 13.45 156.64 1.11C157.42 -0.449999 160.13 -0.349999 159.61 1.73C156.49 14.07 156.85 23.7 160.34 35.93C162.16 42.18 166.43 48.01 164.87 54.83C163.98 58.73 159.87 62.07 156.49 63.78C153.99 65.08 151.54 66.23 149.05 67.37C156.76 80.07 161.39 95.54 161.65 112.25C161.55 112.25 161.49 112.2 161.39 112.2C161.49 113.19 161.6 114.23 161.65 115.27C161.7 114.85 161.7 114.44 161.7 114.02C161.7 113.45 161.7 112.82 161.65 112.25C163.16 112.67 164.77 113.08 166.34 113.6C169.36 114.59 176.54 115.16 178.42 118.18C180.81 122.03 179.77 126.82 180.29 131.14C181.28 139.31 183.67 146.39 187.89 153.53C188.61 154.65 186.89 156.16 185.9 155.07Z"
          fill="#231F20"
        ></path>
        <path
          id="Vector_2"
          d="M109.53 24.03C109.48 24.03 109.48 24.03 109.43 24.03C109.43 23.98 109.48 23.98 109.48 23.93C109.48 23.98 109.53 23.98 109.53 24.03Z"
          fill="#231F20"
        ></path>
      </g>
      <path
        id="Vector_3"
        d="M64.5901 41.04C68.0901 39.26 71.4601 36.35 73.0801 32.67C74.1101 30.34 74.1801 26.91 72.6901 25.28C69.2701 26.34 66.3801 27.84 63.8901 29.74C59.4201 32.79 55.5401 36.2 53.2101 40.31C55.2501 43.56 60.4401 43.14 64.5901 41.04Z"
        fill="#231F20"
      ></path>
      <path
        id="Vector_4"
        d="M119.1 38.51C122.43 40.16 132.44 42.69 134.59 38.02C134.2 37.34 133.78 36.69 133.34 36.06C128.4 29.04 119.75 25.96 111.59 24.32C110.45 26.05 110.44 28.56 111.4 30.87C112.82 34.3 115.8 36.89 119.1 38.51Z"
        fill="#231F20"
      ></path>
      <path
        id="Vector_5"
        d="M149.41 160.01C148.63 161.31 147.85 162.56 147.02 163.81C146.97 163.81 146.86 163.76 146.81 163.71C147.38 162.77 148.11 161.94 148.74 161C148.99 160.64 149.2 160.32 149.41 160.01Z"
        fill="white"
      ></path>
      <path
        id="Vector_6"
        d="M151.18 156.89C150.82 157.57 150.45 158.3 150.03 158.97C150.39 158.29 150.76 157.62 151.12 156.89H151.18Z"
        fill="white"
      ></path>
      <path
        id="Vector_7"
        d="M161.7 113.99C161.7 114.41 161.7 114.82 161.65 115.24C161.6 114.2 161.49 113.16 161.39 112.17C161.49 112.17 161.55 112.22 161.65 112.22C161.7 112.79 161.7 113.42 161.7 113.99Z"
        fill="white"
      ></path>
      <path
        id="Vector_8"
        d="M41.9001 163.92C41.8001 163.97 41.6401 164.08 41.5401 164.13C40.7601 162.98 40.0301 161.84 39.3501 160.69C40.1801 161.78 41.0201 162.88 41.9001 163.92Z"
        fill="white"
      ></path>
      <path
        id="Vector_9"
        d="M41.9001 163.92C41.8001 163.97 41.6401 164.08 41.5401 164.13C40.7601 162.98 40.0301 161.84 39.3501 160.69C40.1801 161.78 41.0201 162.88 41.9001 163.92Z"
        fill="#603813"
      ></path>
      <path
        id="Vector_10"
        d="M149.41 160.01C148.63 161.31 147.85 162.56 147.02 163.81C146.97 163.81 146.86 163.76 146.81 163.71C147.38 162.77 148.11 161.94 148.74 161C148.99 160.64 149.2 160.32 149.41 160.01Z"
        fill="#603813"
      ></path>
      <path
        id="Vector_11"
        d="M151.18 156.89C150.82 157.57 150.45 158.3 150.03 158.97C150.39 158.29 150.76 157.62 151.12 156.89H151.18Z"
        fill="#603813"
      ></path>
      <path
        id="Vector_12"
        d="M161.7 113.99C161.7 114.41 161.7 114.82 161.65 115.24C161.6 114.2 161.49 113.16 161.39 112.17C161.49 112.17 161.55 112.22 161.65 112.22C161.7 112.79 161.7 113.42 161.7 113.99Z"
        fill="#603813"
      ></path>
      <path
        id="Vector_13"
        d="M77.79 98.38L47.2601 102.81C45.0801 103.13 44.21 105.81 45.79 107.35L67.91 128.89L62.68 159.34C62.31 161.51 64.59 163.17 66.54 162.14L91.18 149.19V198.7C91.18 201.2 88.47 202.81 86.29 201.62C72.91 194.38 36.36 170.64 31.42 124.93C25.38 68.81 63.54 54.7 63.54 54.7C63.54 54.7 72.4901 50.48 85.7701 51.94C88.8401 52.25 91.18 54.91 91.18 58.03V71.31L77.79 98.38Z"
        stroke="#231F20"
        stroke-miterlimit="10"
      ></path>
      <path
        id="Vector_14"
        d="M110.73 98.38L141.26 102.81C143.44 103.13 144.31 105.81 142.73 107.35L120.61 128.89L125.84 159.34C126.21 161.51 123.93 163.17 121.98 162.14L97.3401 149.19V198.7C97.3401 201.2 100.05 202.81 102.23 201.62C115.61 194.38 152.16 170.64 157.1 124.93C163.14 68.81 124.98 54.7 124.98 54.7C124.98 54.7 116.03 50.48 102.75 51.94C99.6801 52.25 97.3401 54.91 97.3401 58.03V71.31L110.73 98.38Z"
        stroke="#231F20"
        stroke-miterlimit="10"
      ></path>
      <path
        id="Vector_15"
        d="M97.06 79.78L107.86 101.66L132.01 105.17C134.37 105.51 135.31 108.41 133.6 110.07L116.13 127.1L120.25 151.15C120.65 153.5 118.19 155.29 116.08 154.18L94.48 142.83L72.88 154.18C70.77 155.29 68.31 153.5 68.71 151.15L72.83 127.1L55.36 110.07C53.65 108.41 54.6 105.51 56.95 105.17L81.1 101.66L91.9 79.78C92.96 77.64 96.01 77.64 97.06 79.78Z"
        fill="white"
      ></path>
    </g>
  </symbol>
  <symbol fill="none" xmlns="http://www.w3.org/2000/svg" viewBox="0 0 188 211" id="faster">
    <path
      d="M185.042 155.042C178.062 147.022 174.522 136.822 173.332 126.412C172.862 122.192 166.092 120.012 160.682 118.342C160.112 132.452 156.362 145.672 150.322 156.872H150.272C149.912 157.602 149.542 158.282 149.182 158.952C149.602 158.272 149.962 157.542 150.332 156.872C158.302 160.622 164.072 165.722 158.302 172.022C155.702 174.832 152.992 177.542 149.972 179.992C143.202 185.562 138.362 188.372 148.252 193.842C153.982 197.022 156.892 202.482 158.612 208.572C158.922 209.612 157.412 210.812 156.682 209.772C151.272 201.802 140.752 200.822 135.802 193.112C134.032 190.302 135.592 188.532 137.102 186.342C139.032 183.582 153.862 168.902 149.962 166.302C148.712 165.472 147.462 164.632 146.162 163.802C146.992 162.552 147.772 161.302 148.552 160.002C148.342 160.312 148.132 160.622 147.872 160.992C147.252 161.932 146.522 162.762 145.942 163.702C145.992 163.752 146.102 163.802 146.152 163.802C133.812 182.182 114.702 194.002 93.3122 194.002C72.0222 194.002 53.0722 182.342 40.6822 164.122C40.7822 164.072 40.9422 163.962 41.0422 163.912C40.1522 162.872 39.3222 161.782 38.4922 160.682C39.1722 161.832 39.9022 162.972 40.6822 164.122C39.5322 164.852 38.3922 165.582 37.3022 166.312C33.4022 168.912 48.2322 183.592 50.1622 186.352C51.6722 188.542 53.2322 190.312 51.4622 193.122C46.5122 200.832 36.0522 201.812 30.5822 209.782C29.8522 210.822 28.3422 209.622 28.6522 208.582C30.3722 202.492 33.2822 197.022 39.0122 193.852C48.9022 188.382 44.0622 185.572 37.2922 180.002C34.3222 177.552 31.5622 174.852 28.9622 172.032C23.4922 166.042 29.0622 160.782 36.4622 157.092C30.3222 145.842 26.5722 132.622 25.8922 118.462C20.6822 120.132 14.3322 122.422 13.9222 126.432C12.7222 136.842 9.1822 147.052 2.2122 155.062C1.2722 156.152 -0.497814 154.642 0.232186 153.502C4.45219 146.372 6.89219 139.292 7.83219 131.112C8.35219 126.792 7.31219 122.002 9.70219 118.152C11.6322 115.132 18.7622 114.562 21.7822 113.572C22.7722 113.262 24.4922 112.792 25.7922 112.422C26.0522 95.5025 30.7922 79.8325 38.6022 67.0725C36.3122 66.0325 33.9722 64.9425 31.6222 63.7425C28.2422 62.0225 24.1722 58.6925 23.2422 54.7925C21.6822 47.9725 25.9522 42.1425 27.7722 35.8925C31.2622 23.6625 31.6222 14.0225 28.5022 1.69247C27.9822 -0.387526 30.6922 -0.497526 31.5222 1.07247C37.8222 13.4125 36.3622 24.8125 34.5422 38.1425C33.2422 47.9825 27.5622 55.5825 39.5922 62.2425C40.1622 62.5525 40.6322 62.8125 41.1522 63.1825C43.9122 59.2225 47.0322 55.5325 50.3622 52.2525C49.7422 48.6625 50.1022 45.5325 51.1922 42.7225C53.1722 44.8025 56.4522 45.2225 59.8822 44.4425C62.3822 43.9725 64.9822 42.8325 67.1722 41.3725C68.2622 40.6425 69.3622 39.7025 70.3522 38.7225C73.0622 35.9125 75.0922 32.2625 75.2422 28.4125C75.2922 26.9025 74.9322 25.6525 74.3622 24.6125C74.4122 24.6125 74.5222 24.5625 74.5722 24.5625C77.3822 19.4125 82.9022 15.1925 89.5122 14.5625C94.3022 14.1425 99.6622 14.7725 103.462 17.6325C105.912 19.4525 107.422 21.6425 108.612 23.9325C108.612 23.9825 108.562 23.9825 108.562 24.0325C108.252 24.7625 107.942 25.5925 107.782 26.5325C107.102 30.7525 109.192 34.3425 112.052 37.1025C112.732 37.8325 113.512 38.4525 114.292 39.0325C116.372 40.5925 119.962 41.9525 123.712 42.5225C128.082 43.2525 132.562 42.7825 134.802 40.1325C136.622 44.0325 137.512 48.4625 136.472 52.4725C139.802 55.7525 142.872 59.4525 145.632 63.4025C146.312 63.0425 146.982 62.6225 147.662 62.2525C159.692 55.5925 154.012 47.9925 152.712 38.1525C150.892 24.8225 149.432 13.4225 155.782 1.08247C156.562 -0.477526 159.272 -0.377526 158.752 1.70247C155.632 14.0425 155.992 23.6725 159.482 35.9025C161.302 42.1525 165.572 47.9825 164.012 54.8025C163.122 58.7025 159.012 62.0425 155.632 63.7525C153.132 65.0525 150.682 66.2025 148.192 67.3425C155.902 80.0425 160.532 95.5125 160.792 112.222C160.692 112.222 160.632 112.172 160.532 112.172C160.632 113.162 160.742 114.202 160.792 115.242C160.842 114.822 160.842 114.412 160.842 113.992C160.842 113.422 160.842 112.792 160.792 112.222C162.302 112.642 163.912 113.052 165.482 113.572C168.502 114.562 175.682 115.132 177.562 118.152C179.952 122.002 178.912 126.792 179.432 131.112C180.422 139.282 182.812 146.362 187.032 153.502C187.742 154.622 186.032 156.132 185.042 155.042Z"
      fill="#231F20"
    ></path>
    <path
      d="M108.662 24.0025C108.612 24.0025 108.612 24.0025 108.562 24.0025C108.562 23.9525 108.612 23.9525 108.612 23.9025C108.612 23.9525 108.662 23.9525 108.662 24.0025Z"
      fill="#231F20"
    ></path>
    <path
      d="M63.7222 41.0124C67.2222 39.2324 70.5922 36.3224 72.2122 32.6424C73.2422 30.3124 73.3122 26.8824 71.8222 25.2524C68.4022 26.3124 65.5122 27.8124 63.0222 29.7124C58.5522 32.7624 54.6722 36.1724 52.3422 40.2824C54.3822 43.5324 59.5822 43.1124 63.7222 41.0124Z"
      fill="#231F20"
    ></path>
    <path
      d="M118.232 38.4825C121.562 40.1325 131.572 42.6625 133.722 37.9925C133.332 37.3125 132.912 36.6625 132.472 36.0325C127.532 29.0125 118.882 25.9325 110.712 24.2925C109.572 26.0225 109.562 28.5325 110.522 30.8425C111.952 34.2725 114.932 36.8625 118.232 38.4825Z"
      fill="#231F20"
    ></path>
    <path
      d="M148.542 159.982C147.762 161.282 146.982 162.532 146.152 163.782C146.102 163.782 145.992 163.732 145.942 163.682C146.512 162.742 147.242 161.912 147.872 160.972C148.122 160.612 148.332 160.292 148.542 159.982Z"
      fill="white"
    ></path>
    <path
      d="M150.312 156.862C149.952 157.542 149.582 158.272 149.162 158.942C149.522 158.262 149.892 157.592 150.252 156.862H150.312Z"
      fill="white"
    ></path>
    <path
      d="M160.832 113.962C160.832 114.382 160.832 114.792 160.782 115.212C160.732 114.172 160.622 113.132 160.522 112.142C160.622 112.142 160.682 112.192 160.782 112.192C160.832 112.762 160.832 113.392 160.832 113.962Z"
      fill="white"
    ></path>
    <path
      d="M41.0322 163.892C40.9322 163.942 40.7722 164.052 40.6722 164.102C39.8922 162.952 39.1622 161.812 38.4822 160.662C39.3222 161.752 40.1522 162.852 41.0322 163.892Z"
      fill="white"
    ></path>
    <path
      d="M41.0322 163.892C40.9322 163.942 40.7722 164.052 40.6722 164.102C39.8922 162.952 39.1622 161.812 38.4822 160.662C39.3222 161.752 40.1522 162.852 41.0322 163.892Z"
      fill="#603813"
    ></path>
    <path
      d="M148.542 159.982C147.762 161.282 146.982 162.532 146.152 163.782C146.102 163.782 145.992 163.732 145.942 163.682C146.512 162.742 147.242 161.912 147.872 160.972C148.122 160.612 148.332 160.292 148.542 159.982Z"
      fill="#603813"
    ></path>
    <path
      d="M150.312 156.862C149.952 157.542 149.582 158.272 149.162 158.942C149.522 158.262 149.892 157.592 150.252 156.862H150.312Z"
      fill="#603813"
    ></path>
    <path
      d="M160.832 113.962C160.832 114.382 160.832 114.792 160.782 115.212C160.732 114.172 160.622 113.132 160.522 112.142C160.622 112.142 160.682 112.192 160.782 112.192C160.832 112.762 160.832 113.392 160.832 113.962Z"
      fill="#603813"
    ></path>
    <path
      d="M90.2922 57.9924V198.662C90.2922 201.172 87.6222 202.792 85.4222 201.602C72.0522 194.382 35.4922 170.642 30.5522 124.912C24.5022 68.8024 62.6622 54.6724 62.6622 54.6724C62.6622 54.6724 71.6422 50.4524 84.8822 51.8924C87.9522 52.2324 90.2922 54.8924 90.2922 57.9924Z"
      fill="currentColor"
    ></path>
    <path
      opacity="0.5"
      d="M90.2922 138.072V198.662C90.2922 201.172 87.6222 202.792 85.4222 201.602C72.0522 194.382 35.4922 170.642 30.5522 124.912C24.5022 68.8025 62.6622 134.762 62.6622 134.762C62.6622 134.762 71.6422 130.542 84.8822 131.982C87.9522 132.322 90.2922 134.972 90.2922 138.072Z"
      fill="white"
    ></path>
    <path
      opacity="0.7"
      d="M90.2922 156.862V198.662C90.2922 201.172 87.6222 202.792 85.4222 201.602C72.0522 194.382 35.4922 170.642 30.5522 124.912C24.5022 68.8025 62.6622 153.542 62.6622 153.542C62.6622 153.542 71.6422 149.322 84.8822 150.762C87.9522 151.102 90.2922 153.762 90.2922 156.862Z"
      fill="white"
    ></path>
    <path
      d="M95.2022 57.9924V198.662C95.2022 201.172 97.8722 202.792 100.072 201.602C113.442 194.382 150.002 170.642 154.942 124.912C160.992 68.8024 122.832 54.6724 122.832 54.6724C122.832 54.6724 113.852 50.4524 100.612 51.8924C97.5422 52.2324 95.2022 54.8924 95.2022 57.9924Z"
      fill="currentColor"
    ></path>
    <path
      opacity="0.5"
      d="M95.2022 138.072V198.662C95.2022 201.172 97.8722 202.792 100.072 201.602C113.442 194.382 150.002 170.642 154.942 124.912C160.992 68.8025 122.832 134.762 122.832 134.762C122.832 134.762 113.852 130.542 100.612 131.982C97.5422 132.322 95.2022 134.972 95.2022 138.072Z"
      fill="white"
    ></path>
    <path
      opacity="0.7"
      d="M95.2022 156.862V198.662C95.2022 201.172 97.8722 202.792 100.072 201.602C113.442 194.382 150.002 170.642 154.942 124.912C160.992 68.8025 122.832 153.542 122.832 153.542C122.832 153.542 113.852 149.322 100.612 150.762C97.5422 151.102 95.2022 153.762 95.2022 156.862Z"
      fill="white"
    ></path>
  </symbol>
  <symbol fill="currentColor" xmlns="http://www.w3.org/2000/svg" viewBox="0 0 189 211" id="fielder">
    <g id="Group 3">
      <g id="Group">
        <path
          id="Vector"
          d="M185.91 155.07C178.93 147.05 175.39 136.85 174.2 126.44C173.73 122.22 166.96 120.04 161.55 118.37C160.98 132.48 157.23 145.7 151.19 156.9H151.14C150.78 157.63 150.41 158.31 150.05 158.98C150.47 158.3 150.83 157.57 151.2 156.9C159.17 160.65 164.94 165.75 159.17 172.05C156.57 174.86 153.86 177.57 150.84 180.02C144.07 185.59 139.23 188.4 149.12 193.87C154.85 197.05 157.76 202.51 159.48 208.6C159.79 209.64 158.28 210.84 157.55 209.8C152.14 201.83 141.62 200.85 136.67 193.14C134.9 190.33 136.46 188.56 137.97 186.37C139.9 183.61 154.73 168.93 150.83 166.33C149.58 165.5 148.33 164.66 147.03 163.83C147.86 162.58 148.64 161.33 149.42 160.03C149.21 160.34 149 160.65 148.74 161.02C148.12 161.96 147.39 162.79 146.81 163.73C146.86 163.78 146.97 163.83 147.02 163.83C134.68 182.21 115.57 194.03 94.18 194.03C72.89 194.03 53.94 182.37 41.55 164.15C41.65 164.1 41.81 163.99 41.91 163.94C41.02 162.9 40.19 161.81 39.36 160.71C40.04 161.86 40.77 163 41.55 164.15C40.4 164.88 39.26 165.61 38.17 166.34C34.27 168.94 49.1 183.62 51.03 186.38C52.54 188.57 54.1 190.34 52.33 193.15C47.38 200.86 36.92 201.84 31.45 209.81C30.72 210.85 29.21 209.65 29.52 208.61C31.24 202.52 34.15 197.05 39.88 193.88C49.77 188.41 44.93 185.6 38.16 180.03C35.19 177.58 32.43 174.88 29.83 172.06C24.36 166.07 29.93 160.81 37.33 157.12C31.19 145.87 27.44 132.65 26.76 118.49C21.55 120.16 15.2 122.45 14.79 126.46C13.59 136.87 10.05 147.08 3.07998 155.09C2.13998 156.18 0.369985 154.67 1.09999 153.53C5.31999 146.4 7.75999 139.32 8.69999 131.14C9.21999 126.82 8.17999 122.03 10.57 118.18C12.5 115.16 19.63 114.59 22.65 113.6C23.64 113.29 25.36 112.82 26.66 112.45C26.92 95.53 31.66 79.86 39.47 67.1C37.18 66.06 34.84 64.97 32.49 63.77C29.11 62.05 25.04 58.72 24.11 54.82C22.55 48 26.82 42.17 28.64 35.92C32.13 23.69 32.49 14.05 29.37 1.72C28.85 -0.359999 31.56 -0.469999 32.39 1.1C38.69 13.44 37.23 24.84 35.41 38.17C34.11 48.01 28.43 55.61 40.46 62.27C41.03 62.58 41.5 62.84 42.02 63.21C44.78 59.25 47.9 55.56 51.23 52.28C50.61 48.69 50.97 45.56 52.06 42.75C54.04 44.83 57.32 45.25 60.75 44.47C63.25 44 65.85 42.86 68.04 41.4C69.13 40.67 70.23 39.73 71.22 38.75C73.93 35.94 75.96 32.29 76.11 28.44C76.16 26.93 75.8 25.68 75.23 24.64C75.28 24.64 75.39 24.59 75.44 24.59C78.25 19.44 83.77 15.22 90.38 14.59C95.17 14.17 100.53 14.8 104.33 17.66C106.78 19.48 108.29 21.67 109.48 23.96C109.48 24.01 109.43 24.01 109.43 24.06C109.12 24.79 108.81 25.62 108.65 26.56C107.97 30.78 110.06 34.37 112.92 37.13C113.6 37.86 114.38 38.48 115.16 39.06C117.24 40.62 120.83 41.98 124.58 42.55C128.95 43.28 133.43 42.81 135.67 40.16C137.49 44.06 138.38 48.49 137.34 52.5C140.67 55.78 143.74 59.48 146.5 63.43C147.18 63.07 147.85 62.65 148.53 62.28C160.56 55.62 154.88 48.02 153.58 38.18C151.76 24.85 150.3 13.45 156.65 1.11C157.43 -0.449999 160.14 -0.349999 159.62 1.73C156.5 14.07 156.86 23.7 160.35 35.93C162.17 42.18 166.44 48.01 164.88 54.83C163.99 58.73 159.88 62.07 156.5 63.78C154 65.08 151.55 66.23 149.06 67.37C156.77 80.07 161.4 95.54 161.66 112.25C161.56 112.25 161.5 112.2 161.4 112.2C161.5 113.19 161.61 114.23 161.66 115.27C161.71 114.85 161.71 114.44 161.71 114.02C161.71 113.45 161.71 112.82 161.66 112.25C163.17 112.67 164.78 113.08 166.35 113.6C169.37 114.59 176.55 115.16 178.43 118.18C180.82 122.03 179.78 126.82 180.3 131.14C181.29 139.31 183.68 146.39 187.9 153.53C188.61 154.65 186.9 156.16 185.91 155.07Z"
          fill="#231F20"
        ></path>
        <path
          id="Vector_2"
          d="M109.53 24.03C109.48 24.03 109.48 24.03 109.43 24.03C109.43 23.98 109.48 23.98 109.48 23.93C109.48 23.98 109.53 23.98 109.53 24.03Z"
          fill="#231F20"
        ></path>
      </g>
      <path
        id="Vector_3"
        d="M64.59 41.04C68.09 39.26 71.46 36.35 73.08 32.67C74.11 30.34 74.18 26.91 72.69 25.28C69.27 26.34 66.38 27.84 63.89 29.74C59.42 32.79 55.54 36.2 53.21 40.31C55.25 43.56 60.45 43.14 64.59 41.04Z"
        fill="#231F20"
      ></path>
      <path
        id="Vector_4"
        d="M119.1 38.51C122.43 40.16 132.44 42.69 134.59 38.02C134.2 37.34 133.78 36.69 133.34 36.06C128.4 29.04 119.75 25.96 111.59 24.32C110.45 26.05 110.44 28.56 111.4 30.87C112.82 34.3 115.8 36.89 119.1 38.51Z"
        fill="#231F20"
      ></path>
      <path
        id="Vector_5"
        d="M149.41 160.01C148.63 161.31 147.85 162.56 147.02 163.81C146.97 163.81 146.86 163.76 146.81 163.71C147.38 162.77 148.11 161.94 148.74 161C148.99 160.64 149.2 160.32 149.41 160.01Z"
        fill="white"
      ></path>
      <path
        id="Vector_6"
        d="M151.18 156.89C150.82 157.57 150.45 158.3 150.03 158.97C150.39 158.29 150.76 157.62 151.12 156.89H151.18Z"
        fill="white"
      ></path>
      <path
        id="Vector_7"
        d="M161.7 113.99C161.7 114.41 161.7 114.82 161.65 115.24C161.6 114.2 161.49 113.16 161.39 112.17C161.49 112.17 161.55 112.22 161.65 112.22C161.7 112.79 161.7 113.42 161.7 113.99Z"
        fill="white"
      ></path>
      <path
        id="Vector_8"
        d="M41.9 163.92C41.8 163.97 41.64 164.08 41.54 164.13C40.76 162.98 40.03 161.84 39.35 160.69C40.19 161.78 41.02 162.88 41.9 163.92Z"
        fill="white"
      ></path>
      <path
        id="Vector_9"
        d="M41.9 163.92C41.8 163.97 41.64 164.08 41.54 164.13C40.76 162.98 40.03 161.84 39.35 160.69C40.19 161.78 41.02 162.88 41.9 163.92Z"
        fill="#603813"
      ></path>
      <path
        id="Vector_10"
        d="M149.41 160.01C148.63 161.31 147.85 162.56 147.02 163.81C146.97 163.81 146.86 163.76 146.81 163.71C147.38 162.77 148.11 161.94 148.74 161C148.99 160.64 149.2 160.32 149.41 160.01Z"
        fill="#603813"
      ></path>
      <path
        id="Vector_11"
        d="M151.18 156.89C150.82 157.57 150.45 158.3 150.03 158.97C150.39 158.29 150.76 157.62 151.12 156.89H151.18Z"
        fill="#603813"
      ></path>
      <path
        id="Vector_12"
        d="M161.7 113.99C161.7 114.41 161.7 114.82 161.65 115.24C161.6 114.2 161.49 113.16 161.39 112.17C161.49 112.17 161.55 112.22 161.65 112.22C161.7 112.79 161.7 113.42 161.7 113.99Z"
        fill="#603813"
      ></path>
      <path
        id="Vector_13"
        d="M91.16 58.02V198.69C91.16 201.2 88.49 202.82 86.29 201.63C72.92 194.41 36.36 170.67 31.42 124.94C25.37 68.83 63.53 54.7 63.53 54.7C63.53 54.7 72.51 50.48 85.75 51.92C88.82 52.26 91.16 54.92 91.16 58.02Z"
        stroke="#231F20"
        stroke-miterlimit="10"
      ></path>
      <g id="Group_2">
        <path
          id="Vector_14"
          d="M91.1 83.13V90.21L47.52 66.16C49.08 64.49 50.7 62.98 52.21 61.73L91.1 83.13Z"
          fill="white"
        ></path>
        <path
          id="Vector_15"
          d="M91.1 66.88V73.91L59.6 56.57C61.94 55.27 63.45 54.7 63.45 54.7C63.45 54.7 64.65 54.13 66.83 53.5L91.1 66.88Z"
          fill="white"
        ></path>
        <path
          id="Vector_16"
          d="M91.1 99.53V106.61L38.99 77.92C40.03 75.99 41.12 74.22 42.27 72.61L91.1 99.53Z"
          fill="white"
        ></path>
        <path
          id="Vector_17"
          d="M91.1 118.68V125.76L32.9 93.7C33.42 91.57 34.05 89.54 34.67 87.66L91.1 118.68Z"
          fill="white"
        ></path>
        <path
          id="Vector_18"
          d="M91.1 136.28V143.36L30.81 110.09C30.86 107.75 31.02 105.46 31.28 103.32L91.1 136.28Z"
          fill="white"
        ></path>
        <path
          id="Vector_19"
          d="M91.1 152.06V159.09L31.49 126.29V126.24C31.44 125.82 31.39 125.46 31.33 124.99C31.07 122.86 30.91 120.83 30.86 118.85L91.1 152.06Z"
          fill="white"
        ></path>
        <path
          id="Vector_20"
          d="M91.1 168.2V175.28L35.76 144.77C34.82 142.06 33.99 139.3 33.31 136.39L91.1 168.2Z"
          fill="white"
        ></path>
        <path
          id="Vector_21"
          d="M91.1 187.41V194.44L51.22 172.47L51.17 172.42C48.36 168.98 45.7 165.18 43.26 161.07L91.1 187.41Z"
          fill="white"
        ></path>
      </g>
      <path
        id="Vector_22"
        d="M96.55 58.84V199.51C96.55 202.02 99.22 203.64 101.42 202.45C114.79 195.23 151.35 171.49 156.29 125.76C162.34 69.65 124.18 55.52 124.18 55.52C124.18 55.52 115.2 51.3 101.96 52.74C98.88 53.08 96.55 55.74 96.55 58.84Z"
        stroke="#231F20"
        stroke-miterlimit="10"
      ></path>
      <g id="Group_3">
        <path
          id="Vector_23"
          d="M96.6 83.95V91.03L140.18 66.98C138.62 65.31 137 63.8 135.49 62.55L96.6 83.95Z"
          fill="white"
        ></path>
        <path
          id="Vector_24"
          d="M96.6 67.7V74.73L128.1 57.39C125.76 56.09 124.25 55.52 124.25 55.52C124.25 55.52 123.05 54.95 120.87 54.32L96.6 67.7Z"
          fill="white"
        ></path>
        <path
          id="Vector_25"
          d="M96.6 100.34V107.42L148.71 78.73C147.67 76.8 146.58 75.03 145.43 73.42L96.6 100.34Z"
          fill="white"
        ></path>
        <path
          id="Vector_26"
          d="M96.6 119.5V126.58L154.8 94.51C154.28 92.38 153.65 90.35 153.03 88.47L96.6 119.5Z"
          fill="white"
        ></path>
        <path
          id="Vector_27"
          d="M96.6 137.1V144.18L156.89 110.91C156.84 108.57 156.68 106.28 156.42 104.14L96.6 137.1Z"
          fill="white"
        ></path>
        <path
          id="Vector_28"
          d="M96.6 152.87V159.9L156.21 127.1V127.05C156.26 126.63 156.31 126.27 156.37 125.8C156.63 123.67 156.79 121.64 156.84 119.66L96.6 152.87Z"
          fill="white"
        ></path>
        <path
          id="Vector_29"
          d="M96.6 169.01V176.09L151.94 145.58C152.88 142.87 153.71 140.11 154.39 137.2L96.6 169.01Z"
          fill="white"
        ></path>
        <path
          id="Vector_30"
          d="M96.6 188.22V195.25L136.48 173.28L136.53 173.23C139.34 169.79 142 165.99 144.44 161.88L96.6 188.22Z"
          fill="white"
        ></path>
      </g>
    </g>
  </symbol>
  <symbol fill="none" xmlns="http://www.w3.org/2000/svg" viewBox="0 0 73 77" id="megaphone">
    <path
      d="M29.1364 19.4858V69.4827C29.1407 70.0201 29.0269 70.55 28.8055 71.0234C28.5842 71.4967 28.2625 71.8983 27.8702 72.1907L24.0014 75.1412C23.6266 75.4288 23.1972 75.6087 22.7493 75.6658C22.3014 75.7229 21.8481 75.6555 21.4276 75.4694C21.0071 75.2832 20.6316 74.9836 20.3328 74.596C20.034 74.2083 19.8206 73.7438 19.7106 73.2416L15.068 51.8201"
      fill="currentColor"
    ></path>
    <path
      d="M29.1364 19.4858V69.4827C29.1407 70.0201 29.0269 70.55 28.8055 71.0234C28.5842 71.4967 28.2625 71.8983 27.8702 72.1907L24.0014 75.1412C23.6266 75.4288 23.1972 75.6087 22.7493 75.6658C22.3014 75.7229 21.8481 75.6555 21.4276 75.4694C21.0071 75.2832 20.6316 74.9836 20.3328 74.596C20.034 74.2083 19.8206 73.7438 19.7106 73.2416L15.068 51.8201"
      stroke="black"
      stroke-width="2"
      stroke-linecap="round"
      stroke-linejoin="round"
    ></path>
    <path
      d="M15.0684 51.82C11.3373 51.82 7.75893 50.1167 5.1206 47.0848C2.48228 44.0529 1.00008 39.9407 1.00008 35.6529C1.00008 31.3651 2.48228 27.2529 5.1206 24.221C7.75893 21.1891 11.3373 19.4858 15.0684 19.4858H29.1368C29.1368 19.4858 48.3049 19.4858 66.7344 1.74232C67.1443 1.35251 67.642 1.10425 68.1697 1.02635C68.6975 0.948452 69.2336 1.0441 69.7159 1.30221C70.1983 1.56032 70.607 1.97029 70.8948 2.48458C71.1826 2.99887 71.3376 3.59639 71.3418 4.20781V67.098C71.3376 67.7094 71.1826 68.3069 70.8948 68.8212C70.607 69.3355 70.1983 69.7455 69.7159 70.0036C69.2336 70.2617 68.6975 70.3574 68.1697 70.2795C67.642 70.2016 67.1443 69.9533 66.7344 69.5635C48.3049 51.82 29.1368 51.82 29.1368 51.82H15.0684Z"
      fill="currentColor"
      stroke="black"
      stroke-width="2"
      stroke-linecap="round"
      stroke-linejoin="round"
    ></path>
    <path
      d="M56.9524 9.65155V61.1516"
      stroke="black"
      stroke-width="2"
      stroke-linecap="round"
    ></path>
  </symbol>
  <symbol fill="none" xmlns="http://www.w3.org/2000/svg" viewBox="0 0 188 211" id="sprinter">
    <path
      d="M184.982 155.042C178.002 147.022 174.462 136.822 173.272 126.412C172.802 122.192 166.032 120.012 160.622 118.342C160.052 132.452 156.312 145.672 150.272 156.872C158.242 160.622 164.012 165.722 158.242 172.022C155.642 174.832 152.932 177.542 149.912 179.992C143.142 185.562 138.302 188.372 148.192 193.842C153.922 197.022 156.832 202.482 158.552 208.572C158.862 209.612 157.352 210.812 156.622 209.772C151.212 201.802 140.692 200.822 135.742 193.112C133.972 190.302 135.532 188.532 137.042 186.342C138.972 183.582 153.802 168.902 149.902 166.302C148.652 165.472 147.392 164.632 146.092 163.802C133.752 182.182 114.642 194.002 93.2521 194.002C71.9621 194.002 53.0121 182.342 40.6221 164.122C39.3022 164.978 37.2421 166.312 37.2421 166.312C33.3421 168.912 48.1721 183.592 50.1021 186.352C51.6121 188.542 53.1721 190.312 51.4021 193.122C46.4521 200.832 35.9921 201.812 30.5221 209.782C29.7921 210.822 28.2821 209.622 28.5921 208.582C30.3121 202.492 33.2221 197.022 38.9521 193.852C48.8421 188.382 44.0021 185.572 37.2321 180.002C34.2621 177.552 31.5021 174.852 28.9021 172.032C23.4321 166.042 29.0021 160.782 36.4021 157.092C30.2621 145.842 26.5121 132.622 25.8321 118.462C20.6221 120.132 14.2721 122.422 13.8621 126.432C12.6621 136.842 9.12213 147.052 2.15213 155.062C1.21213 156.152 -0.557872 154.642 0.172129 153.502C4.39213 146.372 6.83213 139.292 7.77213 131.112C8.29213 126.792 7.25213 122.002 9.64213 118.152C11.5721 115.132 18.7021 114.562 21.7221 113.572C22.7121 113.262 24.4321 112.792 25.7321 112.422C25.9921 95.5025 30.7321 79.8325 38.5421 67.0725C36.2521 66.0325 33.9121 64.9425 31.5621 63.7425C28.1821 62.0225 24.1121 58.6925 23.1821 54.7925C21.6221 47.9725 25.8921 42.1425 27.7121 35.8925C31.2021 23.6625 31.5621 14.0225 28.4421 1.69247C27.9221 -0.387526 30.6321 -0.497526 31.4621 1.07247C37.7621 13.4125 36.3021 24.8125 34.4821 38.1425C33.1821 47.9825 27.5021 55.5825 39.5321 62.2425C40.1021 62.5525 40.5721 62.8125 41.0921 63.1825C43.8521 59.2225 46.9721 55.5325 50.3121 52.2525C49.6921 48.6625 50.0521 45.5325 51.1421 42.7225C53.1221 44.8025 56.4021 45.2225 59.8321 44.4425C62.3321 43.9725 64.9321 42.8325 67.1221 41.3725C68.2121 40.6425 69.3121 39.7025 70.3021 38.7225C73.0121 35.9125 75.0421 32.2625 75.1921 28.4125C75.2421 26.9025 74.8821 25.6525 74.3121 24.6125C74.3621 24.6125 74.4721 24.5625 74.5221 24.5625C77.3321 19.4125 82.8521 15.1925 89.4621 14.5625C94.2521 14.1425 99.6121 14.7725 103.412 17.6325C105.862 19.4525 107.372 21.6425 108.562 23.9325C108.562 23.9825 108.512 23.9825 108.512 24.0325C108.202 24.7625 107.892 25.5925 107.732 26.5325C107.052 30.7525 109.142 34.3425 112.002 37.1025C112.682 37.8325 113.462 38.4525 114.242 39.0325C116.322 40.5925 119.912 41.9525 123.662 42.5225C128.032 43.2525 132.512 42.7825 134.752 40.1325C136.572 44.0325 137.462 48.4625 136.422 52.4725C139.752 55.7525 142.822 59.4525 145.582 63.4025C146.262 63.0425 146.932 62.6225 147.612 62.2525C159.642 55.5925 153.962 47.9925 152.662 38.1525C150.842 24.8225 149.382 13.4225 155.732 1.08247C156.512 -0.477526 159.222 -0.377526 158.702 1.70247C155.582 14.0425 155.942 23.6725 159.432 35.9025C161.252 42.1525 165.522 47.9825 163.962 54.8025C163.072 58.7025 158.962 62.0425 155.582 63.7525C153.082 65.0525 150.632 66.2025 148.142 67.3425C155.852 80.0425 160.482 95.5125 160.742 112.222C162.252 112.642 163.862 113.052 165.432 113.572C168.452 114.562 175.632 115.132 177.512 118.152C179.902 122.002 178.862 126.792 179.382 131.112C180.372 139.282 182.762 146.362 186.982 153.502C187.692 154.622 185.972 156.132 184.982 155.042Z"
      fill="#231F20"
    ></path>
    <path
      d="M108.612 24.0025C108.562 24.0025 108.562 24.0025 108.512 24.0025C108.512 23.9525 108.562 23.9525 108.562 23.9025C108.552 23.9525 108.612 23.9525 108.612 24.0025Z"
      fill="#231F20"
    ></path>
    <path
      d="M63.6621 41.0124C67.1621 39.2324 70.5321 36.3224 72.1521 32.6424C73.1821 30.3124 73.2521 26.8824 71.7621 25.2524C68.3421 26.3124 65.4521 27.8124 62.9621 29.7124C58.4921 32.7624 54.6121 36.1724 52.2821 40.2824C54.3221 43.5324 59.5221 43.1124 63.6621 41.0124Z"
      fill="#231F20"
    ></path>
    <path
      d="M118.182 38.4825C121.512 40.1325 131.522 42.6625 133.672 37.9925C133.282 37.3125 132.862 36.6625 132.422 36.0325C127.482 29.0125 118.832 25.9325 110.672 24.2925C109.532 26.0225 109.522 28.5325 110.482 30.8425C111.892 34.2725 114.882 36.8625 118.182 38.4825Z"
      fill="#231F20"
    ></path>
    <path
      d="M45.5121 105.362C53.3321 100.272 56.3521 86.7425 53.5721 78.0825C50.9921 70.0525 44.0121 68.6225 38.5621 71.7825C34.7121 78.5925 31.7821 86.1625 29.9221 94.2525C30.1021 95.2925 30.3521 96.3225 30.7221 97.3425C32.9321 103.292 38.6021 109.852 45.5121 105.362Z"
      fill="white"
    ></path>
    <path
      d="M78.2121 52.4625C75.3221 52.5925 59.1421 52.4625 49.0021 57.4425C46.0921 60.5725 43.4421 64.0225 41.0421 67.7125C49.0221 65.4425 56.2521 73.9825 56.4721 82.3125C56.7021 91.5425 53.1021 109.023 40.8221 109.033C34.1121 109.033 30.5721 105.413 29.0021 100.363C28.9821 100.683 28.8321 100.983 28.6121 101.213C28.0921 104.703 27.7621 108.273 27.6521 111.913C27.6221 111.923 27.6021 111.923 27.5721 111.933C27.6121 112.183 27.6121 112.443 27.6421 112.703C27.6321 113.303 27.5921 113.903 27.5921 114.513C27.5921 118.683 27.8921 122.773 28.4221 126.753C28.8221 126.493 29.2221 126.233 29.6921 126.043C36.0121 123.533 40.7321 129.943 43.2521 134.913C45.9921 140.293 47.3021 146.973 44.5121 152.543C43.0921 155.383 40.7521 156.663 38.2221 156.663C48.6421 175.473 65.8321 188.623 85.7221 191.353C88.7721 191.773 91.5021 189.403 91.5021 186.323V89.0025C91.4321 88.8825 91.2221 59.3425 78.2121 52.4625ZM86.8621 138.933C84.6121 146.503 75.5321 156.793 67.5321 148.603C60.7721 141.673 62.4121 129.153 65.8721 121.023C68.2821 115.353 73.2521 108.873 79.0621 110.493C90.6221 112.993 89.3521 130.503 86.8621 138.933Z"
      fill="currentColor"
    ></path>
    <path
      d="M82.3721 114.873C82.0821 115.023 81.7221 114.263 81.4521 114.013C69.4221 103.043 59.4921 138.293 69.0021 146.563C82.3921 158.183 93.3621 124.383 82.3721 114.873Z"
      fill="white"
    ></path>
    <path
      d="M43.9021 145.282C43.5021 141.862 42.5321 138.352 40.7921 135.332C39.2821 132.692 36.9021 128.782 33.7021 128.012C31.5221 127.482 29.9221 128.022 28.7721 129.112C30.2321 138.072 32.9921 146.482 36.8221 154.052C41.7021 155.462 44.4621 150.042 43.9021 145.282Z"
      fill="white"
    ></path>
    <path
      d="M106.332 111.953C95.1221 112.363 98.3521 134.003 101.672 139.573C103.852 143.233 107.682 148.453 112.602 148.133C117.512 147.813 120.712 143.633 121.342 138.953C122.332 131.583 117.062 111.953 106.332 111.953Z"
      fill="white"
    ></path>
    <path
      d="M157.432 96.3425C155.502 100.502 152.292 103.802 147.172 104.752C140.212 106.042 132.652 101.332 129.382 95.3325C125.262 87.7925 125.562 77.0425 131.942 70.6825C135.812 66.8325 140.112 65.2125 145.342 66.9525C143.002 63.4325 140.412 60.1325 137.592 57.1325C126.722 55.3725 115.802 53.6325 104.832 52.7825C94.6921 57.3825 93.2921 73.2525 93.6021 84.1225C93.6121 84.1825 93.6421 84.2125 93.6421 84.2725V85.2325C93.6821 86.2725 93.7421 88.6225 93.6421 88.8125V186.552C93.6421 189.562 96.2621 191.912 99.2621 191.602C119.052 189.552 136.312 177.222 147.182 159.182C145.012 159.922 142.612 159.972 140.022 158.942C133.382 156.282 131.922 148.152 133.592 141.982C135.322 135.602 141.142 130.352 147.712 129.352C152.212 128.662 155.512 130.252 157.322 133.252C158.592 127.262 159.272 120.982 159.272 114.522C159.282 108.252 158.632 102.172 157.432 96.3425ZM114.952 150.042C103.312 152.722 96.4021 137.672 96.1721 128.162C95.9821 120.492 99.4821 106.742 109.762 110.272C123.522 112.892 130.712 146.402 114.952 150.042Z"
      fill="currentColor"
    ></path>
    <path
      d="M135.412 142.922C134.372 147.902 135.622 154.012 140.612 156.462C143.772 158.022 146.612 157.522 149.002 155.992C152.142 150.202 154.642 143.902 156.392 137.202C153.872 126.482 137.452 133.152 135.412 142.922Z"
      fill="white"
    ></path>
    <path
      d="M130.082 77.1725C127.942 83.5625 128.392 90.8225 132.902 96.1325C136.182 99.9825 141.282 103.183 146.552 102.573C152.252 101.913 155.222 97.7725 156.662 92.9125C154.812 85.4125 152.022 78.3725 148.442 72.0025C148.002 71.5525 147.532 71.1425 147.022 70.7825C140.482 66.1425 132.542 69.7925 130.082 77.1725Z"
      fill="white"
    ></path>
  </symbol>
  <symbol fill="currentColor" xmlns="http://www.w3.org/2000/svg" viewBox="0 0 188 211" id="turkish">
    <g id="Group">
      <g id="Group_2">
        <path
          id="Vector"
          d="M185.8 155.07C178.82 147.05 175.28 136.85 174.09 126.44C173.62 122.22 166.85 120.04 161.44 118.37C160.87 132.48 157.12 145.7 151.08 156.9H151.03C150.67 157.63 150.3 158.31 149.94 158.98C150.36 158.3 150.72 157.57 151.09 156.9C159.06 160.65 164.83 165.75 159.06 172.05C156.46 174.86 153.75 177.57 150.73 180.02C143.96 185.59 139.12 188.4 149.01 193.87C154.74 197.05 157.65 202.51 159.37 208.6C159.68 209.64 158.17 210.84 157.44 209.8C152.03 201.83 141.51 200.85 136.56 193.14C134.79 190.33 136.35 188.56 137.86 186.37C139.79 183.61 154.62 168.93 150.72 166.33C149.47 165.5 148.22 164.66 146.92 163.83C147.75 162.58 148.53 161.33 149.31 160.03C149.1 160.34 148.89 160.65 148.63 161.02C148.01 161.96 147.28 162.79 146.7 163.73C146.75 163.78 146.86 163.83 146.91 163.83C134.57 182.21 115.46 194.03 94.07 194.03C72.78 194.03 53.83 182.37 41.44 164.15C41.54 164.1 41.7 163.99 41.8 163.94C40.91 162.9 40.08 161.81 39.25 160.71C39.93 161.86 40.66 163 41.44 164.15C40.29 164.88 39.15 165.61 38.06 166.34C34.16 168.94 48.99 183.62 50.92 186.38C52.43 188.57 53.99 190.34 52.22 193.15C47.27 200.86 36.81 201.84 31.34 209.81C30.61 210.85 29.1 209.65 29.41 208.61C31.13 202.52 34.04 197.05 39.77 193.88C49.66 188.41 44.82 185.6 38.05 180.03C35.08 177.58 32.32 174.88 29.72 172.06C24.25 166.07 29.82 160.81 37.22 157.12C31.08 145.87 27.33 132.65 26.65 118.49C21.44 120.16 15.09 122.45 14.68 126.46C13.48 136.87 9.93998 147.08 2.96998 155.09C2.02998 156.18 0.260001 154.67 0.990001 153.53C5.21 146.4 7.65004 139.32 8.59004 131.14C9.11004 126.82 8.07003 122.03 10.46 118.18C12.39 115.16 19.52 114.59 22.54 113.6C23.53 113.29 25.25 112.82 26.55 112.45C26.81 95.53 31.55 79.86 39.36 67.1C37.07 66.06 34.73 64.97 32.38 63.77C29 62.05 24.93 58.72 24 54.82C22.44 48 26.71 42.17 28.53 35.92C32.02 23.69 32.38 14.05 29.26 1.72C28.74 -0.359999 31.45 -0.469999 32.28 1.1C38.58 13.44 37.12 24.84 35.3 38.17C34 48.01 28.32 55.61 40.35 62.27C40.92 62.58 41.39 62.84 41.91 63.21C44.67 59.25 47.79 55.56 51.13 52.28C50.51 48.69 50.87 45.56 51.96 42.75C53.94 44.83 57.22 45.25 60.65 44.47C63.15 44 65.75 42.86 67.94 41.4C69.03 40.67 70.13 39.73 71.12 38.75C73.83 35.94 75.86 32.29 76.01 28.44C76.06 26.93 75.7 25.68 75.13 24.64C75.18 24.64 75.29 24.59 75.34 24.59C78.15 19.44 83.67 15.22 90.28 14.59C95.07 14.17 100.43 14.8 104.23 17.66C106.68 19.48 108.19 21.67 109.38 23.96C109.38 24.01 109.33 24.01 109.33 24.06C109.02 24.79 108.71 25.62 108.55 26.56C107.87 30.78 109.96 34.37 112.82 37.13C113.5 37.86 114.28 38.48 115.06 39.06C117.14 40.62 120.73 41.98 124.48 42.55C128.85 43.28 133.33 42.81 135.57 40.16C137.39 44.06 138.28 48.49 137.24 52.5C140.57 55.78 143.64 59.48 146.4 63.43C147.08 63.07 147.75 62.65 148.43 62.28C160.46 55.62 154.78 48.02 153.48 38.18C151.66 24.85 150.2 13.45 156.55 1.11C157.33 -0.449999 160.04 -0.349999 159.52 1.73C156.4 14.07 156.76 23.7 160.25 35.93C162.07 42.18 166.34 48.01 164.78 54.83C163.89 58.73 159.78 62.07 156.4 63.78C153.9 65.08 151.45 66.23 148.96 67.37C156.67 80.07 161.3 95.54 161.56 112.25C161.46 112.25 161.4 112.2 161.3 112.2C161.4 113.19 161.51 114.23 161.56 115.27C161.61 114.85 161.61 114.44 161.61 114.02C161.61 113.45 161.61 112.82 161.56 112.25C163.07 112.67 164.68 113.08 166.25 113.6C169.27 114.59 176.45 115.16 178.33 118.18C180.72 122.03 179.68 126.82 180.2 131.14C181.19 139.31 183.58 146.39 187.8 153.53C188.5 154.65 186.79 156.16 185.8 155.07Z"
          fill="#231F20"
        ></path>
        <path
          id="Vector_2"
          d="M109.42 24.03C109.37 24.03 109.37 24.03 109.32 24.03C109.32 23.98 109.37 23.98 109.37 23.93C109.37 23.98 109.42 23.98 109.42 24.03Z"
          fill="#231F20"
        ></path>
      </g>
      <path
        id="Vector_3"
        d="M64.48 41.04C67.98 39.26 71.35 36.35 72.97 32.67C74 30.34 74.07 26.91 72.58 25.28C69.16 26.34 66.27 27.84 63.78 29.74C59.31 32.79 55.43 36.2 53.1 40.31C55.14 43.56 60.34 43.14 64.48 41.04Z"
        fill="#231F20"
      ></path>
      <path
        id="Vector_4"
        d="M118.99 38.51C122.32 40.16 132.33 42.69 134.48 38.02C134.09 37.34 133.67 36.69 133.23 36.06C128.29 29.04 119.64 25.96 111.48 24.32C110.34 26.05 110.33 28.56 111.29 30.87C112.71 34.3 115.69 36.89 118.99 38.51Z"
        fill="#231F20"
      ></path>
      <path
        id="Vector_5"
        d="M149.3 160.01C148.52 161.31 147.74 162.56 146.91 163.81C146.86 163.81 146.75 163.76 146.7 163.71C147.27 162.77 148 161.94 148.63 161C148.89 160.64 149.09 160.32 149.3 160.01Z"
        fill="white"
      ></path>
      <path
        id="Vector_6"
        d="M151.07 156.89C150.71 157.57 150.34 158.3 149.92 158.97C150.28 158.29 150.65 157.62 151.01 156.89H151.07Z"
        fill="white"
      ></path>
      <path
        id="Vector_7"
        d="M161.59 113.99C161.59 114.41 161.59 114.82 161.54 115.24C161.49 114.2 161.38 113.16 161.28 112.17C161.38 112.17 161.44 112.22 161.54 112.22C161.59 112.79 161.59 113.42 161.59 113.99Z"
        fill="white"
      ></path>
      <path
        id="Vector_8"
        d="M41.8 163.92C41.7 163.97 41.54 164.08 41.44 164.13C40.66 162.98 39.93 161.84 39.25 160.69C40.08 161.78 40.91 162.88 41.8 163.92Z"
        fill="white"
      ></path>
      <path
        id="Vector_9"
        d="M41.8 163.92C41.7 163.97 41.54 164.08 41.44 164.13C40.66 162.98 39.93 161.84 39.25 160.69C40.08 161.78 40.91 162.88 41.8 163.92Z"
        fill="#603813"
      ></path>
      <path
        id="Vector_10"
        d="M149.3 160.01C148.52 161.31 147.74 162.56 146.91 163.81C146.86 163.81 146.75 163.76 146.7 163.71C147.27 162.77 148 161.94 148.63 161C148.89 160.64 149.09 160.32 149.3 160.01Z"
        fill="#603813"
      ></path>
      <path
        id="Vector_11"
        d="M151.07 156.89C150.71 157.57 150.34 158.3 149.92 158.97C150.28 158.29 150.65 157.62 151.01 156.89H151.07Z"
        fill="#603813"
      ></path>
      <path
        id="Vector_12"
        d="M161.59 113.99C161.59 114.41 161.59 114.82 161.54 115.24C161.49 114.2 161.38 113.16 161.28 112.17C161.38 112.17 161.44 112.22 161.54 112.22C161.59 112.79 161.59 113.42 161.59 113.99Z"
        fill="#603813"
      ></path>
      <path
        id="Union"
        clip-rule="evenodd"
        fill="currentColor"
        d="M18.9291 104.763C28.312 73.2181 59.3795 54.6992 88.2573 63.2893L88.2574 63.2893C90.7925 64.0429 92.8435 65.6412 94.4512 67.9543C93.9702 68.71 93.5328 69.5253 93.1374 70.3947C91.2992 74.4365 90.3495 79.6809 90.1278 85.6506C89.7548 95.6977 91.441 107.895 94.5378 120.095C93.9744 122.301 93.3645 124.508 92.7118 126.703C88.4445 141.052 82.3627 154.835 75.5476 164.477C72.139 169.3 68.5662 173.059 64.9701 175.343C61.3817 177.621 57.8041 178.413 54.3323 177.381C25.4445 168.791 9.5462 136.307 18.9291 104.763ZM95.0537 122.079C94.617 123.719 94.1553 125.357 93.6703 126.988C89.3839 141.401 83.2626 155.295 76.3642 165.055C72.9161 169.933 69.2546 173.806 65.5062 176.187C61.7501 178.572 57.873 179.477 54.0473 178.339C24.5552 169.569 8.45347 136.473 17.9706 104.477C27.4877 72.482 59.0601 53.5609 88.5423 62.3308C91.2181 63.1262 93.3692 64.7716 95.0512 67.074C96.7324 64.7716 98.8827 63.1262 101.558 62.3308C131.04 53.5609 162.612 72.482 172.129 104.477C181.647 136.473 165.545 169.569 136.053 178.339C132.228 179.477 128.352 178.572 124.597 176.187C120.85 173.806 117.189 169.933 113.741 165.055C106.844 155.295 100.724 141.401 96.4371 126.988C95.9522 125.357 95.4905 123.719 95.0537 122.079ZM95.6514 67.9542C97.2583 65.6411 99.3085 64.0429 101.843 63.2893C130.72 54.6992 161.788 73.2181 171.171 104.763C180.554 136.307 164.655 168.791 135.768 177.381L135.91 177.86L135.768 177.381C132.297 178.413 128.721 177.621 125.133 175.343C121.538 173.059 117.966 169.3 114.558 164.477C107.744 154.835 101.663 141.052 97.3956 126.703C96.743 124.508 96.1331 122.301 95.5697 120.095C98.6663 107.895 100.352 95.6977 99.9778 85.6505C99.7555 79.6808 98.805 74.4364 96.9658 70.3946C96.5702 69.5252 96.1326 68.7099 95.6514 67.9542ZM95.0514 68.8851C95.4114 69.4864 95.7459 70.1282 96.0556 70.8088C97.8201 74.6863 98.7587 79.7865 98.9785 85.6877C99.3296 95.1163 97.8428 106.504 95.0537 118.021C92.2644 106.504 90.7771 95.1163 91.1272 85.6877C91.3463 79.7864 92.2842 74.6862 94.0477 70.8087C94.3572 70.1282 94.6916 69.4864 95.0514 68.8851Z"
      ></path>
      <path
        id="Vector_14"
        d="M135.91 177.86C160.56 170.53 174.6 144.6 167.27 119.95C159.94 95.3 134.01 81.26 109.36 88.59C84.71 95.92 111.26 185.19 135.91 177.86Z"
        fill="white"
      ></path>
      <path
        id="Vector_13"
        d="M54.19 177.86C29.54 170.53 15.5 144.6 22.83 119.95C30.16 95.3 56.09 81.26 80.74 88.59C105.39 95.92 78.85 185.19 54.19 177.86Z"
        fill="white"
      ></path>
    </g>
  </symbol>
</svg>

