<svg width="189" height="211" viewBox="0 0 189 211" fill="currentColor" xmlns="http://www.w3.org/2000/svg">
  <g id="Group 3">
    <g id="Group">
      <path id="Vector" d="M185.91 155.07C178.93 147.05 175.39 136.85 174.2 126.44C173.73 122.22 166.96 120.04 161.55 118.37C160.98 132.48 157.23 145.7 151.19 156.9H151.14C150.78 157.63 150.41 158.31 150.05 158.98C150.47 158.3 150.83 157.57 151.2 156.9C159.17 160.65 164.94 165.75 159.17 172.05C156.57 174.86 153.86 177.57 150.84 180.02C144.07 185.59 139.23 188.4 149.12 193.87C154.85 197.05 157.76 202.51 159.48 208.6C159.79 209.64 158.28 210.84 157.55 209.8C152.14 201.83 141.62 200.85 136.67 193.14C134.9 190.33 136.46 188.56 137.97 186.37C139.9 183.61 154.73 168.93 150.83 166.33C149.58 165.5 148.33 164.66 147.03 163.83C147.86 162.58 148.64 161.33 149.42 160.03C149.21 160.34 149 160.65 148.74 161.02C148.12 161.96 147.39 162.79 146.81 163.73C146.86 163.78 146.97 163.83 147.02 163.83C134.68 182.21 115.57 194.03 94.18 194.03C72.89 194.03 53.94 182.37 41.55 164.15C41.65 164.1 41.81 163.99 41.91 163.94C41.02 162.9 40.19 161.81 39.36 160.71C40.04 161.86 40.77 163 41.55 164.15C40.4 164.88 39.26 165.61 38.17 166.34C34.27 168.94 49.1 183.62 51.03 186.38C52.54 188.57 54.1 190.34 52.33 193.15C47.38 200.86 36.92 201.84 31.45 209.81C30.72 210.85 29.21 209.65 29.52 208.61C31.24 202.52 34.15 197.05 39.88 193.88C49.77 188.41 44.93 185.6 38.16 180.03C35.19 177.58 32.43 174.88 29.83 172.06C24.36 166.07 29.93 160.81 37.33 157.12C31.19 145.87 27.44 132.65 26.76 118.49C21.55 120.16 15.2 122.45 14.79 126.46C13.59 136.87 10.05 147.08 3.07998 155.09C2.13998 156.18 0.369985 154.67 1.09999 153.53C5.31999 146.4 7.75999 139.32 8.69999 131.14C9.21999 126.82 8.17999 122.03 10.57 118.18C12.5 115.16 19.63 114.59 22.65 113.6C23.64 113.29 25.36 112.82 26.66 112.45C26.92 95.53 31.66 79.86 39.47 67.1C37.18 66.06 34.84 64.97 32.49 63.77C29.11 62.05 25.04 58.72 24.11 54.82C22.55 48 26.82 42.17 28.64 35.92C32.13 23.69 32.49 14.05 29.37 1.72C28.85 -0.359999 31.56 -0.469999 32.39 1.1C38.69 13.44 37.23 24.84 35.41 38.17C34.11 48.01 28.43 55.61 40.46 62.27C41.03 62.58 41.5 62.84 42.02 63.21C44.78 59.25 47.9 55.56 51.23 52.28C50.61 48.69 50.97 45.56 52.06 42.75C54.04 44.83 57.32 45.25 60.75 44.47C63.25 44 65.85 42.86 68.04 41.4C69.13 40.67 70.23 39.73 71.22 38.75C73.93 35.94 75.96 32.29 76.11 28.44C76.16 26.93 75.8 25.68 75.23 24.64C75.28 24.64 75.39 24.59 75.44 24.59C78.25 19.44 83.77 15.22 90.38 14.59C95.17 14.17 100.53 14.8 104.33 17.66C106.78 19.48 108.29 21.67 109.48 23.96C109.48 24.01 109.43 24.01 109.43 24.06C109.12 24.79 108.81 25.62 108.65 26.56C107.97 30.78 110.06 34.37 112.92 37.13C113.6 37.86 114.38 38.48 115.16 39.06C117.24 40.62 120.83 41.98 124.58 42.55C128.95 43.28 133.43 42.81 135.67 40.16C137.49 44.06 138.38 48.49 137.34 52.5C140.67 55.78 143.74 59.48 146.5 63.43C147.18 63.07 147.85 62.65 148.53 62.28C160.56 55.62 154.88 48.02 153.58 38.18C151.76 24.85 150.3 13.45 156.65 1.11C157.43 -0.449999 160.14 -0.349999 159.62 1.73C156.5 14.07 156.86 23.7 160.35 35.93C162.17 42.18 166.44 48.01 164.88 54.83C163.99 58.73 159.88 62.07 156.5 63.78C154 65.08 151.55 66.23 149.06 67.37C156.77 80.07 161.4 95.54 161.66 112.25C161.56 112.25 161.5 112.2 161.4 112.2C161.5 113.19 161.61 114.23 161.66 115.27C161.71 114.85 161.71 114.44 161.71 114.02C161.71 113.45 161.71 112.82 161.66 112.25C163.17 112.67 164.78 113.08 166.35 113.6C169.37 114.59 176.55 115.16 178.43 118.18C180.82 122.03 179.78 126.82 180.3 131.14C181.29 139.31 183.68 146.39 187.9 153.53C188.61 154.65 186.9 156.16 185.91 155.07Z" fill="#231F20" />
      <path id="Vector_2" d="M109.53 24.03C109.48 24.03 109.48 24.03 109.43 24.03C109.43 23.98 109.48 23.98 109.48 23.93C109.48 23.98 109.53 23.98 109.53 24.03Z" fill="#231F20" />
    </g>
    <path id="Vector_3" d="M64.59 41.04C68.09 39.26 71.46 36.35 73.08 32.67C74.11 30.34 74.18 26.91 72.69 25.28C69.27 26.34 66.38 27.84 63.89 29.74C59.42 32.79 55.54 36.2 53.21 40.31C55.25 43.56 60.45 43.14 64.59 41.04Z" fill="#231F20" />
    <path id="Vector_4" d="M119.1 38.51C122.43 40.16 132.44 42.69 134.59 38.02C134.2 37.34 133.78 36.69 133.34 36.06C128.4 29.04 119.75 25.96 111.59 24.32C110.45 26.05 110.44 28.56 111.4 30.87C112.82 34.3 115.8 36.89 119.1 38.51Z" fill="#231F20" />
    <path id="Vector_5" d="M149.41 160.01C148.63 161.31 147.85 162.56 147.02 163.81C146.97 163.81 146.86 163.76 146.81 163.71C147.38 162.77 148.11 161.94 148.74 161C148.99 160.64 149.2 160.32 149.41 160.01Z" fill="white" />
    <path id="Vector_6" d="M151.18 156.89C150.82 157.57 150.45 158.3 150.03 158.97C150.39 158.29 150.76 157.62 151.12 156.89H151.18Z" fill="white" />
    <path id="Vector_7" d="M161.7 113.99C161.7 114.41 161.7 114.82 161.65 115.24C161.6 114.2 161.49 113.16 161.39 112.17C161.49 112.17 161.55 112.22 161.65 112.22C161.7 112.79 161.7 113.42 161.7 113.99Z" fill="white" />
    <path id="Vector_8" d="M41.9 163.92C41.8 163.97 41.64 164.08 41.54 164.13C40.76 162.98 40.03 161.84 39.35 160.69C40.19 161.78 41.02 162.88 41.9 163.92Z" fill="white" />
    <path id="Vector_9" d="M41.9 163.92C41.8 163.97 41.64 164.08 41.54 164.13C40.76 162.98 40.03 161.84 39.35 160.69C40.19 161.78 41.02 162.88 41.9 163.92Z" fill="#603813" />
    <path id="Vector_10" d="M149.41 160.01C148.63 161.31 147.85 162.56 147.02 163.81C146.97 163.81 146.86 163.76 146.81 163.71C147.38 162.77 148.11 161.94 148.74 161C148.99 160.64 149.2 160.32 149.41 160.01Z" fill="#603813" />
    <path id="Vector_11" d="M151.18 156.89C150.82 157.57 150.45 158.3 150.03 158.97C150.39 158.29 150.76 157.62 151.12 156.89H151.18Z" fill="#603813" />
    <path id="Vector_12" d="M161.7 113.99C161.7 114.41 161.7 114.82 161.65 115.24C161.6 114.2 161.49 113.16 161.39 112.17C161.49 112.17 161.55 112.22 161.65 112.22C161.7 112.79 161.7 113.42 161.7 113.99Z" fill="#603813" />
    <path id="Vector_13" d="M91.16 58.02V198.69C91.16 201.2 88.49 202.82 86.29 201.63C72.92 194.41 36.36 170.67 31.42 124.94C25.37 68.83 63.53 54.7 63.53 54.7C63.53 54.7 72.51 50.48 85.75 51.92C88.82 52.26 91.16 54.92 91.16 58.02Z" stroke="#231F20" stroke-miterlimit="10" />
    <g id="Group_2">
      <path id="Vector_14" d="M91.1 83.13V90.21L47.52 66.16C49.08 64.49 50.7 62.98 52.21 61.73L91.1 83.13Z" fill="white" />
      <path id="Vector_15" d="M91.1 66.88V73.91L59.6 56.57C61.94 55.27 63.45 54.7 63.45 54.7C63.45 54.7 64.65 54.13 66.83 53.5L91.1 66.88Z" fill="white" />
      <path id="Vector_16" d="M91.1 99.53V106.61L38.99 77.92C40.03 75.99 41.12 74.22 42.27 72.61L91.1 99.53Z" fill="white" />
      <path id="Vector_17" d="M91.1 118.68V125.76L32.9 93.7C33.42 91.57 34.05 89.54 34.67 87.66L91.1 118.68Z" fill="white" />
      <path id="Vector_18" d="M91.1 136.28V143.36L30.81 110.09C30.86 107.75 31.02 105.46 31.28 103.32L91.1 136.28Z" fill="white" />
      <path id="Vector_19" d="M91.1 152.06V159.09L31.49 126.29V126.24C31.44 125.82 31.39 125.46 31.33 124.99C31.07 122.86 30.91 120.83 30.86 118.85L91.1 152.06Z" fill="white" />
      <path id="Vector_20" d="M91.1 168.2V175.28L35.76 144.77C34.82 142.06 33.99 139.3 33.31 136.39L91.1 168.2Z" fill="white" />
      <path id="Vector_21" d="M91.1 187.41V194.44L51.22 172.47L51.17 172.42C48.36 168.98 45.7 165.18 43.26 161.07L91.1 187.41Z" fill="white" />
    </g>
    <path id="Vector_22" d="M96.55 58.84V199.51C96.55 202.02 99.22 203.64 101.42 202.45C114.79 195.23 151.35 171.49 156.29 125.76C162.34 69.65 124.18 55.52 124.18 55.52C124.18 55.52 115.2 51.3 101.96 52.74C98.88 53.08 96.55 55.74 96.55 58.84Z" stroke="#231F20" stroke-miterlimit="10" />
    <g id="Group_3">
      <path id="Vector_23" d="M96.6 83.95V91.03L140.18 66.98C138.62 65.31 137 63.8 135.49 62.55L96.6 83.95Z" fill="white" />
      <path id="Vector_24" d="M96.6 67.7V74.73L128.1 57.39C125.76 56.09 124.25 55.52 124.25 55.52C124.25 55.52 123.05 54.95 120.87 54.32L96.6 67.7Z" fill="white" />
      <path id="Vector_25" d="M96.6 100.34V107.42L148.71 78.73C147.67 76.8 146.58 75.03 145.43 73.42L96.6 100.34Z" fill="white" />
      <path id="Vector_26" d="M96.6 119.5V126.58L154.8 94.51C154.28 92.38 153.65 90.35 153.03 88.47L96.6 119.5Z" fill="white" />
      <path id="Vector_27" d="M96.6 137.1V144.18L156.89 110.91C156.84 108.57 156.68 106.28 156.42 104.14L96.6 137.1Z" fill="white" />
      <path id="Vector_28" d="M96.6 152.87V159.9L156.21 127.1V127.05C156.26 126.63 156.31 126.27 156.37 125.8C156.63 123.67 156.79 121.64 156.84 119.66L96.6 152.87Z" fill="white" />
      <path id="Vector_29" d="M96.6 169.01V176.09L151.94 145.58C152.88 142.87 153.71 140.11 154.39 137.2L96.6 169.01Z" fill="white" />
      <path id="Vector_30" d="M96.6 188.22V195.25L136.48 173.28L136.53 173.23C139.34 169.79 142 165.99 144.44 161.88L96.6 188.22Z" fill="white" />
    </g>
  </g>
</svg>
