<svg width="188" height="211" viewBox="0 0 188 211" fill="currentColor" xmlns="http://www.w3.org/2000/svg">
  <g id="Group">
    <g id="Group_2">
      <path id="Vector" d="M185.8 155.07C178.82 147.05 175.28 136.85 174.09 126.44C173.62 122.22 166.85 120.04 161.44 118.37C160.87 132.48 157.12 145.7 151.08 156.9H151.03C150.67 157.63 150.3 158.31 149.94 158.98C150.36 158.3 150.72 157.57 151.09 156.9C159.06 160.65 164.83 165.75 159.06 172.05C156.46 174.86 153.75 177.57 150.73 180.02C143.96 185.59 139.12 188.4 149.01 193.87C154.74 197.05 157.65 202.51 159.37 208.6C159.68 209.64 158.17 210.84 157.44 209.8C152.03 201.83 141.51 200.85 136.56 193.14C134.79 190.33 136.35 188.56 137.86 186.37C139.79 183.61 154.62 168.93 150.72 166.33C149.47 165.5 148.22 164.66 146.92 163.83C147.75 162.58 148.53 161.33 149.31 160.03C149.1 160.34 148.89 160.65 148.63 161.02C148.01 161.96 147.28 162.79 146.7 163.73C146.75 163.78 146.86 163.83 146.91 163.83C134.57 182.21 115.46 194.03 94.07 194.03C72.78 194.03 53.83 182.37 41.44 164.15C41.54 164.1 41.7 163.99 41.8 163.94C40.91 162.9 40.08 161.81 39.25 160.71C39.93 161.86 40.66 163 41.44 164.15C40.29 164.88 39.15 165.61 38.06 166.34C34.16 168.94 48.99 183.62 50.92 186.38C52.43 188.57 53.99 190.34 52.22 193.15C47.27 200.86 36.81 201.84 31.34 209.81C30.61 210.85 29.1 209.65 29.41 208.61C31.13 202.52 34.04 197.05 39.77 193.88C49.66 188.41 44.82 185.6 38.05 180.03C35.08 177.58 32.32 174.88 29.72 172.06C24.25 166.07 29.82 160.81 37.22 157.12C31.08 145.87 27.33 132.65 26.65 118.49C21.44 120.16 15.09 122.45 14.68 126.46C13.48 136.87 9.93998 147.08 2.96998 155.09C2.02998 156.18 0.260001 154.67 0.990001 153.53C5.21 146.4 7.65004 139.32 8.59004 131.14C9.11004 126.82 8.07003 122.03 10.46 118.18C12.39 115.16 19.52 114.59 22.54 113.6C23.53 113.29 25.25 112.82 26.55 112.45C26.81 95.53 31.55 79.86 39.36 67.1C37.07 66.06 34.73 64.97 32.38 63.77C29 62.05 24.93 58.72 24 54.82C22.44 48 26.71 42.17 28.53 35.92C32.02 23.69 32.38 14.05 29.26 1.72C28.74 -0.359999 31.45 -0.469999 32.28 1.1C38.58 13.44 37.12 24.84 35.3 38.17C34 48.01 28.32 55.61 40.35 62.27C40.92 62.58 41.39 62.84 41.91 63.21C44.67 59.25 47.79 55.56 51.13 52.28C50.51 48.69 50.87 45.56 51.96 42.75C53.94 44.83 57.22 45.25 60.65 44.47C63.15 44 65.75 42.86 67.94 41.4C69.03 40.67 70.13 39.73 71.12 38.75C73.83 35.94 75.86 32.29 76.01 28.44C76.06 26.93 75.7 25.68 75.13 24.64C75.18 24.64 75.29 24.59 75.34 24.59C78.15 19.44 83.67 15.22 90.28 14.59C95.07 14.17 100.43 14.8 104.23 17.66C106.68 19.48 108.19 21.67 109.38 23.96C109.38 24.01 109.33 24.01 109.33 24.06C109.02 24.79 108.71 25.62 108.55 26.56C107.87 30.78 109.96 34.37 112.82 37.13C113.5 37.86 114.28 38.48 115.06 39.06C117.14 40.62 120.73 41.98 124.48 42.55C128.85 43.28 133.33 42.81 135.57 40.16C137.39 44.06 138.28 48.49 137.24 52.5C140.57 55.78 143.64 59.48 146.4 63.43C147.08 63.07 147.75 62.65 148.43 62.28C160.46 55.62 154.78 48.02 153.48 38.18C151.66 24.85 150.2 13.45 156.55 1.11C157.33 -0.449999 160.04 -0.349999 159.52 1.73C156.4 14.07 156.76 23.7 160.25 35.93C162.07 42.18 166.34 48.01 164.78 54.83C163.89 58.73 159.78 62.07 156.4 63.78C153.9 65.08 151.45 66.23 148.96 67.37C156.67 80.07 161.3 95.54 161.56 112.25C161.46 112.25 161.4 112.2 161.3 112.2C161.4 113.19 161.51 114.23 161.56 115.27C161.61 114.85 161.61 114.44 161.61 114.02C161.61 113.45 161.61 112.82 161.56 112.25C163.07 112.67 164.68 113.08 166.25 113.6C169.27 114.59 176.45 115.16 178.33 118.18C180.72 122.03 179.68 126.82 180.2 131.14C181.19 139.31 183.58 146.39 187.8 153.53C188.5 154.65 186.79 156.16 185.8 155.07Z" fill="#231F20" />
      <path id="Vector_2" d="M109.42 24.03C109.37 24.03 109.37 24.03 109.32 24.03C109.32 23.98 109.37 23.98 109.37 23.93C109.37 23.98 109.42 23.98 109.42 24.03Z" fill="#231F20" />
    </g>
    <path id="Vector_3" d="M64.48 41.04C67.98 39.26 71.35 36.35 72.97 32.67C74 30.34 74.07 26.91 72.58 25.28C69.16 26.34 66.27 27.84 63.78 29.74C59.31 32.79 55.43 36.2 53.1 40.31C55.14 43.56 60.34 43.14 64.48 41.04Z" fill="#231F20" />
    <path id="Vector_4" d="M118.99 38.51C122.32 40.16 132.33 42.69 134.48 38.02C134.09 37.34 133.67 36.69 133.23 36.06C128.29 29.04 119.64 25.96 111.48 24.32C110.34 26.05 110.33 28.56 111.29 30.87C112.71 34.3 115.69 36.89 118.99 38.51Z" fill="#231F20" />
    <path id="Vector_5" d="M149.3 160.01C148.52 161.31 147.74 162.56 146.91 163.81C146.86 163.81 146.75 163.76 146.7 163.71C147.27 162.77 148 161.94 148.63 161C148.89 160.64 149.09 160.32 149.3 160.01Z" fill="white" />
    <path id="Vector_6" d="M151.07 156.89C150.71 157.57 150.34 158.3 149.92 158.97C150.28 158.29 150.65 157.62 151.01 156.89H151.07Z" fill="white" />
    <path id="Vector_7" d="M161.59 113.99C161.59 114.41 161.59 114.82 161.54 115.24C161.49 114.2 161.38 113.16 161.28 112.17C161.38 112.17 161.44 112.22 161.54 112.22C161.59 112.79 161.59 113.42 161.59 113.99Z" fill="white" />
    <path id="Vector_8" d="M41.8 163.92C41.7 163.97 41.54 164.08 41.44 164.13C40.66 162.98 39.93 161.84 39.25 160.69C40.08 161.78 40.91 162.88 41.8 163.92Z" fill="white" />
    <path id="Vector_9" d="M41.8 163.92C41.7 163.97 41.54 164.08 41.44 164.13C40.66 162.98 39.93 161.84 39.25 160.69C40.08 161.78 40.91 162.88 41.8 163.92Z" fill="#603813" />
    <path id="Vector_10" d="M149.3 160.01C148.52 161.31 147.74 162.56 146.91 163.81C146.86 163.81 146.75 163.76 146.7 163.71C147.27 162.77 148 161.94 148.63 161C148.89 160.64 149.09 160.32 149.3 160.01Z" fill="#603813" />
    <path id="Vector_11" d="M151.07 156.89C150.71 157.57 150.34 158.3 149.92 158.97C150.28 158.29 150.65 157.62 151.01 156.89H151.07Z" fill="#603813" />
    <path id="Vector_12" d="M161.59 113.99C161.59 114.41 161.59 114.82 161.54 115.24C161.49 114.2 161.38 113.16 161.28 112.17C161.38 112.17 161.44 112.22 161.54 112.22C161.59 112.79 161.59 113.42 161.59 113.99Z" fill="#603813" />
    <path id="Union"
          clip-rule="evenodd"
          fill="currentColor"
          d="M18.9291 104.763C28.312 73.2181 59.3795 54.6992 88.2573 63.2893L88.2574 63.2893C90.7925 64.0429 92.8435 65.6412 94.4512 67.9543C93.9702 68.71 93.5328 69.5253 93.1374 70.3947C91.2992 74.4365 90.3495 79.6809 90.1278 85.6506C89.7548 95.6977 91.441 107.895 94.5378 120.095C93.9744 122.301 93.3645 124.508 92.7118 126.703C88.4445 141.052 82.3627 154.835 75.5476 164.477C72.139 169.3 68.5662 173.059 64.9701 175.343C61.3817 177.621 57.8041 178.413 54.3323 177.381C25.4445 168.791 9.5462 136.307 18.9291 104.763ZM95.0537 122.079C94.617 123.719 94.1553 125.357 93.6703 126.988C89.3839 141.401 83.2626 155.295 76.3642 165.055C72.9161 169.933 69.2546 173.806 65.5062 176.187C61.7501 178.572 57.873 179.477 54.0473 178.339C24.5552 169.569 8.45347 136.473 17.9706 104.477C27.4877 72.482 59.0601 53.5609 88.5423 62.3308C91.2181 63.1262 93.3692 64.7716 95.0512 67.074C96.7324 64.7716 98.8827 63.1262 101.558 62.3308C131.04 53.5609 162.612 72.482 172.129 104.477C181.647 136.473 165.545 169.569 136.053 178.339C132.228 179.477 128.352 178.572 124.597 176.187C120.85 173.806 117.189 169.933 113.741 165.055C106.844 155.295 100.724 141.401 96.4371 126.988C95.9522 125.357 95.4905 123.719 95.0537 122.079ZM95.6514 67.9542C97.2583 65.6411 99.3085 64.0429 101.843 63.2893C130.72 54.6992 161.788 73.2181 171.171 104.763C180.554 136.307 164.655 168.791 135.768 177.381L135.91 177.86L135.768 177.381C132.297 178.413 128.721 177.621 125.133 175.343C121.538 173.059 117.966 169.3 114.558 164.477C107.744 154.835 101.663 141.052 97.3956 126.703C96.743 124.508 96.1331 122.301 95.5697 120.095C98.6663 107.895 100.352 95.6977 99.9778 85.6505C99.7555 79.6808 98.805 74.4364 96.9658 70.3946C96.5702 69.5252 96.1326 68.7099 95.6514 67.9542ZM95.0514 68.8851C95.4114 69.4864 95.7459 70.1282 96.0556 70.8088C97.8201 74.6863 98.7587 79.7865 98.9785 85.6877C99.3296 95.1163 97.8428 106.504 95.0537 118.021C92.2644 106.504 90.7771 95.1163 91.1272 85.6877C91.3463 79.7864 92.2842 74.6862 94.0477 70.8087C94.3572 70.1282 94.6916 69.4864 95.0514 68.8851Z" />
    <path id="Vector_14" d="M135.91 177.86C160.56 170.53 174.6 144.6 167.27 119.95C159.94 95.3 134.01 81.26 109.36 88.59C84.71 95.92 111.26 185.19 135.91 177.86Z" fill="white" />
    <path id="Vector_13" d="M54.19 177.86C29.54 170.53 15.5 144.6 22.83 119.95C30.16 95.3 56.09 81.26 80.74 88.59C105.39 95.92 78.85 185.19 54.19 177.86Z" fill="white" />
  </g>
</svg>
