<svg width="189" height="211" viewBox="0 0 189 211" fill="currentColor" xmlns="http://www.w3.org/2000/svg">
  <g id="Group">
    <g id="Group_2">
      <path id="Vector" d="M185.9 155.07C178.92 147.05 175.38 136.85 174.19 126.44C173.72 122.22 166.95 120.04 161.54 118.37C160.97 132.48 157.22 145.7 151.18 156.9H151.13C150.77 157.63 150.4 158.31 150.04 158.98C150.46 158.3 150.82 157.57 151.19 156.9C159.16 160.65 164.93 165.75 159.16 172.05C156.56 174.86 153.85 177.57 150.83 180.02C144.06 185.59 139.22 188.4 149.11 193.87C154.84 197.05 157.75 202.51 159.47 208.6C159.78 209.64 158.27 210.84 157.54 209.8C152.13 201.83 141.61 200.85 136.66 193.14C134.89 190.33 136.45 188.56 137.96 186.37C139.89 183.61 154.72 168.93 150.82 166.33C149.57 165.5 148.32 164.66 147.02 163.83C147.85 162.58 148.63 161.33 149.41 160.03C149.2 160.34 148.99 160.65 148.73 161.02C148.11 161.96 147.38 162.79 146.8 163.73C146.85 163.78 146.96 163.83 147.01 163.83C134.67 182.21 115.56 194.03 94.1701 194.03C72.8801 194.03 53.9301 182.37 41.5401 164.15C41.6401 164.1 41.8001 163.99 41.9001 163.94C41.0101 162.9 40.18 161.81 39.35 160.71C40.03 161.86 40.7601 163 41.5401 164.15C40.3901 164.88 39.25 165.61 38.16 166.34C34.26 168.94 49.0901 183.62 51.0201 186.38C52.5301 188.57 54.0901 190.34 52.3201 193.15C47.3701 200.86 36.9101 201.84 31.4401 209.81C30.7101 210.85 29.2001 209.65 29.5101 208.61C31.2301 202.52 34.1401 197.05 39.8701 193.88C49.7601 188.41 44.9201 185.6 38.1501 180.03C35.1801 177.58 32.4201 174.88 29.8201 172.06C24.3501 166.07 29.9201 160.81 37.3201 157.12C31.1801 145.87 27.4301 132.65 26.7501 118.49C21.5401 120.16 15.1901 122.45 14.7801 126.46C13.5801 136.87 10.0401 147.08 3.07008 155.09C2.13008 156.18 0.360099 154.67 1.0901 153.53C5.3101 146.4 7.75007 139.32 8.69007 131.14C9.21007 126.82 8.17007 122.03 10.5601 118.18C12.4901 115.16 19.6201 114.59 22.6401 113.6C23.6301 113.29 25.3501 112.82 26.6501 112.45C26.9101 95.53 31.6501 79.86 39.4601 67.1C37.1701 66.06 34.8301 64.97 32.4801 63.77C29.1001 62.05 25.03 58.72 24.1 54.82C22.54 48 26.8101 42.17 28.6301 35.92C32.1201 23.69 32.4801 14.05 29.3601 1.72C28.8401 -0.359999 31.5501 -0.469999 32.3801 1.1C38.6801 13.44 37.2201 24.84 35.4001 38.17C34.1001 48.01 28.4201 55.61 40.4501 62.27C41.0201 62.58 41.4901 62.84 42.0101 63.21C44.7701 59.25 47.89 55.56 51.22 52.28C50.6 48.69 50.9601 45.56 52.0501 42.75C54.0301 44.83 57.3101 45.25 60.7401 44.47C63.2401 44 65.8401 42.86 68.0301 41.4C69.1201 40.67 70.2201 39.73 71.2101 38.75C73.9201 35.94 75.95 32.29 76.1 28.44C76.15 26.93 75.79 25.68 75.22 24.64C75.27 24.64 75.3801 24.59 75.4301 24.59C78.2401 19.44 83.7601 15.22 90.3701 14.59C95.1601 14.17 100.52 14.8 104.32 17.66C106.77 19.48 108.28 21.67 109.47 23.96C109.47 24.01 109.42 24.01 109.42 24.06C109.11 24.79 108.8 25.62 108.64 26.56C107.96 30.78 110.05 34.37 112.91 37.13C113.59 37.86 114.37 38.48 115.15 39.06C117.23 40.62 120.82 41.98 124.57 42.55C128.94 43.28 133.42 42.81 135.66 40.16C137.48 44.06 138.37 48.49 137.33 52.5C140.66 55.78 143.73 59.48 146.49 63.43C147.17 63.07 147.84 62.65 148.52 62.28C160.55 55.62 154.87 48.02 153.57 38.18C151.75 24.85 150.29 13.45 156.64 1.11C157.42 -0.449999 160.13 -0.349999 159.61 1.73C156.49 14.07 156.85 23.7 160.34 35.93C162.16 42.18 166.43 48.01 164.87 54.83C163.98 58.73 159.87 62.07 156.49 63.78C153.99 65.08 151.54 66.23 149.05 67.37C156.76 80.07 161.39 95.54 161.65 112.25C161.55 112.25 161.49 112.2 161.39 112.2C161.49 113.19 161.6 114.23 161.65 115.27C161.7 114.85 161.7 114.44 161.7 114.02C161.7 113.45 161.7 112.82 161.65 112.25C163.16 112.67 164.77 113.08 166.34 113.6C169.36 114.59 176.54 115.16 178.42 118.18C180.81 122.03 179.77 126.82 180.29 131.14C181.28 139.31 183.67 146.39 187.89 153.53C188.61 154.65 186.89 156.16 185.9 155.07Z" fill="#231F20" />
      <path id="Vector_2" d="M109.53 24.03C109.48 24.03 109.48 24.03 109.43 24.03C109.43 23.98 109.48 23.98 109.48 23.93C109.48 23.98 109.53 23.98 109.53 24.03Z" fill="#231F20" />
    </g>
    <path id="Vector_3" d="M64.5901 41.04C68.0901 39.26 71.4601 36.35 73.0801 32.67C74.1101 30.34 74.1801 26.91 72.6901 25.28C69.2701 26.34 66.3801 27.84 63.8901 29.74C59.4201 32.79 55.5401 36.2 53.2101 40.31C55.2501 43.56 60.4401 43.14 64.5901 41.04Z" fill="#231F20" />
    <path id="Vector_4" d="M119.1 38.51C122.43 40.16 132.44 42.69 134.59 38.02C134.2 37.34 133.78 36.69 133.34 36.06C128.4 29.04 119.75 25.96 111.59 24.32C110.45 26.05 110.44 28.56 111.4 30.87C112.82 34.3 115.8 36.89 119.1 38.51Z" fill="#231F20" />
    <path id="Vector_5" d="M149.41 160.01C148.63 161.31 147.85 162.56 147.02 163.81C146.97 163.81 146.86 163.76 146.81 163.71C147.38 162.77 148.11 161.94 148.74 161C148.99 160.64 149.2 160.32 149.41 160.01Z" fill="white" />
    <path id="Vector_6" d="M151.18 156.89C150.82 157.57 150.45 158.3 150.03 158.97C150.39 158.29 150.76 157.62 151.12 156.89H151.18Z" fill="white" />
    <path id="Vector_7" d="M161.7 113.99C161.7 114.41 161.7 114.82 161.65 115.24C161.6 114.2 161.49 113.16 161.39 112.17C161.49 112.17 161.55 112.22 161.65 112.22C161.7 112.79 161.7 113.42 161.7 113.99Z" fill="white" />
    <path id="Vector_8" d="M41.9001 163.92C41.8001 163.97 41.6401 164.08 41.5401 164.13C40.7601 162.98 40.0301 161.84 39.3501 160.69C40.1801 161.78 41.0201 162.88 41.9001 163.92Z" fill="white" />
    <path id="Vector_9" d="M41.9001 163.92C41.8001 163.97 41.6401 164.08 41.5401 164.13C40.7601 162.98 40.0301 161.84 39.3501 160.69C40.1801 161.78 41.0201 162.88 41.9001 163.92Z" fill="#603813" />
    <path id="Vector_10" d="M149.41 160.01C148.63 161.31 147.85 162.56 147.02 163.81C146.97 163.81 146.86 163.76 146.81 163.71C147.38 162.77 148.11 161.94 148.74 161C148.99 160.64 149.2 160.32 149.41 160.01Z" fill="#603813" />
    <path id="Vector_11" d="M151.18 156.89C150.82 157.57 150.45 158.3 150.03 158.97C150.39 158.29 150.76 157.62 151.12 156.89H151.18Z" fill="#603813" />
    <path id="Vector_12" d="M161.7 113.99C161.7 114.41 161.7 114.82 161.65 115.24C161.6 114.2 161.49 113.16 161.39 112.17C161.49 112.17 161.55 112.22 161.65 112.22C161.7 112.79 161.7 113.42 161.7 113.99Z" fill="#603813" />
    <path id="Vector_13" d="M77.79 98.38L47.2601 102.81C45.0801 103.13 44.21 105.81 45.79 107.35L67.91 128.89L62.68 159.34C62.31 161.51 64.59 163.17 66.54 162.14L91.18 149.19V198.7C91.18 201.2 88.47 202.81 86.29 201.62C72.91 194.38 36.36 170.64 31.42 124.93C25.38 68.81 63.54 54.7 63.54 54.7C63.54 54.7 72.4901 50.48 85.7701 51.94C88.8401 52.25 91.18 54.91 91.18 58.03V71.31L77.79 98.38Z" stroke="#231F20" stroke-miterlimit="10" />
    <path id="Vector_14" d="M110.73 98.38L141.26 102.81C143.44 103.13 144.31 105.81 142.73 107.35L120.61 128.89L125.84 159.34C126.21 161.51 123.93 163.17 121.98 162.14L97.3401 149.19V198.7C97.3401 201.2 100.05 202.81 102.23 201.62C115.61 194.38 152.16 170.64 157.1 124.93C163.14 68.81 124.98 54.7 124.98 54.7C124.98 54.7 116.03 50.48 102.75 51.94C99.6801 52.25 97.3401 54.91 97.3401 58.03V71.31L110.73 98.38Z" stroke="#231F20" stroke-miterlimit="10" />
    <path id="Vector_15" d="M97.06 79.78L107.86 101.66L132.01 105.17C134.37 105.51 135.31 108.41 133.6 110.07L116.13 127.1L120.25 151.15C120.65 153.5 118.19 155.29 116.08 154.18L94.48 142.83L72.88 154.18C70.77 155.29 68.31 153.5 68.71 151.15L72.83 127.1L55.36 110.07C53.65 108.41 54.6 105.51 56.95 105.17L81.1 101.66L91.9 79.78C92.96 77.64 96.01 77.64 97.06 79.78Z" fill="white" />
  </g>
</svg>
