<svg width="188" height="211" viewBox="0 0 188 211" fill="none" xmlns="http://www.w3.org/2000/svg">
<path d="M185.042 155.042C178.062 147.022 174.522 136.822 173.332 126.412C172.862 122.192 166.092 120.012 160.682 118.342C160.112 132.452 156.362 145.672 150.322 156.872H150.272C149.912 157.602 149.542 158.282 149.182 158.952C149.602 158.272 149.962 157.542 150.332 156.872C158.302 160.622 164.072 165.722 158.302 172.022C155.702 174.832 152.992 177.542 149.972 179.992C143.202 185.562 138.362 188.372 148.252 193.842C153.982 197.022 156.892 202.482 158.612 208.572C158.922 209.612 157.412 210.812 156.682 209.772C151.272 201.802 140.752 200.822 135.802 193.112C134.032 190.302 135.592 188.532 137.102 186.342C139.032 183.582 153.862 168.902 149.962 166.302C148.712 165.472 147.462 164.632 146.162 163.802C146.992 162.552 147.772 161.302 148.552 160.002C148.342 160.312 148.132 160.622 147.872 160.992C147.252 161.932 146.522 162.762 145.942 163.702C145.992 163.752 146.102 163.802 146.152 163.802C133.812 182.182 114.702 194.002 93.3122 194.002C72.0222 194.002 53.0722 182.342 40.6822 164.122C40.7822 164.072 40.9422 163.962 41.0422 163.912C40.1522 162.872 39.3222 161.782 38.4922 160.682C39.1722 161.832 39.9022 162.972 40.6822 164.122C39.5322 164.852 38.3922 165.582 37.3022 166.312C33.4022 168.912 48.2322 183.592 50.1622 186.352C51.6722 188.542 53.2322 190.312 51.4622 193.122C46.5122 200.832 36.0522 201.812 30.5822 209.782C29.8522 210.822 28.3422 209.622 28.6522 208.582C30.3722 202.492 33.2822 197.022 39.0122 193.852C48.9022 188.382 44.0622 185.572 37.2922 180.002C34.3222 177.552 31.5622 174.852 28.9622 172.032C23.4922 166.042 29.0622 160.782 36.4622 157.092C30.3222 145.842 26.5722 132.622 25.8922 118.462C20.6822 120.132 14.3322 122.422 13.9222 126.432C12.7222 136.842 9.1822 147.052 2.2122 155.062C1.2722 156.152 -0.497814 154.642 0.232186 153.502C4.45219 146.372 6.89219 139.292 7.83219 131.112C8.35219 126.792 7.31219 122.002 9.70219 118.152C11.6322 115.132 18.7622 114.562 21.7822 113.572C22.7722 113.262 24.4922 112.792 25.7922 112.422C26.0522 95.5025 30.7922 79.8325 38.6022 67.0725C36.3122 66.0325 33.9722 64.9425 31.6222 63.7425C28.2422 62.0225 24.1722 58.6925 23.2422 54.7925C21.6822 47.9725 25.9522 42.1425 27.7722 35.8925C31.2622 23.6625 31.6222 14.0225 28.5022 1.69247C27.9822 -0.387526 30.6922 -0.497526 31.5222 1.07247C37.8222 13.4125 36.3622 24.8125 34.5422 38.1425C33.2422 47.9825 27.5622 55.5825 39.5922 62.2425C40.1622 62.5525 40.6322 62.8125 41.1522 63.1825C43.9122 59.2225 47.0322 55.5325 50.3622 52.2525C49.7422 48.6625 50.1022 45.5325 51.1922 42.7225C53.1722 44.8025 56.4522 45.2225 59.8822 44.4425C62.3822 43.9725 64.9822 42.8325 67.1722 41.3725C68.2622 40.6425 69.3622 39.7025 70.3522 38.7225C73.0622 35.9125 75.0922 32.2625 75.2422 28.4125C75.2922 26.9025 74.9322 25.6525 74.3622 24.6125C74.4122 24.6125 74.5222 24.5625 74.5722 24.5625C77.3822 19.4125 82.9022 15.1925 89.5122 14.5625C94.3022 14.1425 99.6622 14.7725 103.462 17.6325C105.912 19.4525 107.422 21.6425 108.612 23.9325C108.612 23.9825 108.562 23.9825 108.562 24.0325C108.252 24.7625 107.942 25.5925 107.782 26.5325C107.102 30.7525 109.192 34.3425 112.052 37.1025C112.732 37.8325 113.512 38.4525 114.292 39.0325C116.372 40.5925 119.962 41.9525 123.712 42.5225C128.082 43.2525 132.562 42.7825 134.802 40.1325C136.622 44.0325 137.512 48.4625 136.472 52.4725C139.802 55.7525 142.872 59.4525 145.632 63.4025C146.312 63.0425 146.982 62.6225 147.662 62.2525C159.692 55.5925 154.012 47.9925 152.712 38.1525C150.892 24.8225 149.432 13.4225 155.782 1.08247C156.562 -0.477526 159.272 -0.377526 158.752 1.70247C155.632 14.0425 155.992 23.6725 159.482 35.9025C161.302 42.1525 165.572 47.9825 164.012 54.8025C163.122 58.7025 159.012 62.0425 155.632 63.7525C153.132 65.0525 150.682 66.2025 148.192 67.3425C155.902 80.0425 160.532 95.5125 160.792 112.222C160.692 112.222 160.632 112.172 160.532 112.172C160.632 113.162 160.742 114.202 160.792 115.242C160.842 114.822 160.842 114.412 160.842 113.992C160.842 113.422 160.842 112.792 160.792 112.222C162.302 112.642 163.912 113.052 165.482 113.572C168.502 114.562 175.682 115.132 177.562 118.152C179.952 122.002 178.912 126.792 179.432 131.112C180.422 139.282 182.812 146.362 187.032 153.502C187.742 154.622 186.032 156.132 185.042 155.042Z" fill="#231F20"/>
<path d="M108.662 24.0025C108.612 24.0025 108.612 24.0025 108.562 24.0025C108.562 23.9525 108.612 23.9525 108.612 23.9025C108.612 23.9525 108.662 23.9525 108.662 24.0025Z" fill="#231F20"/>
<path d="M63.7222 41.0124C67.2222 39.2324 70.5922 36.3224 72.2122 32.6424C73.2422 30.3124 73.3122 26.8824 71.8222 25.2524C68.4022 26.3124 65.5122 27.8124 63.0222 29.7124C58.5522 32.7624 54.6722 36.1724 52.3422 40.2824C54.3822 43.5324 59.5822 43.1124 63.7222 41.0124Z" fill="#231F20"/>
<path d="M118.232 38.4825C121.562 40.1325 131.572 42.6625 133.722 37.9925C133.332 37.3125 132.912 36.6625 132.472 36.0325C127.532 29.0125 118.882 25.9325 110.712 24.2925C109.572 26.0225 109.562 28.5325 110.522 30.8425C111.952 34.2725 114.932 36.8625 118.232 38.4825Z" fill="#231F20"/>
<path d="M148.542 159.982C147.762 161.282 146.982 162.532 146.152 163.782C146.102 163.782 145.992 163.732 145.942 163.682C146.512 162.742 147.242 161.912 147.872 160.972C148.122 160.612 148.332 160.292 148.542 159.982Z" fill="white"/>
<path d="M150.312 156.862C149.952 157.542 149.582 158.272 149.162 158.942C149.522 158.262 149.892 157.592 150.252 156.862H150.312Z" fill="white"/>
<path d="M160.832 113.962C160.832 114.382 160.832 114.792 160.782 115.212C160.732 114.172 160.622 113.132 160.522 112.142C160.622 112.142 160.682 112.192 160.782 112.192C160.832 112.762 160.832 113.392 160.832 113.962Z" fill="white"/>
<path d="M41.0322 163.892C40.9322 163.942 40.7722 164.052 40.6722 164.102C39.8922 162.952 39.1622 161.812 38.4822 160.662C39.3222 161.752 40.1522 162.852 41.0322 163.892Z" fill="white"/>
<path d="M41.0322 163.892C40.9322 163.942 40.7722 164.052 40.6722 164.102C39.8922 162.952 39.1622 161.812 38.4822 160.662C39.3222 161.752 40.1522 162.852 41.0322 163.892Z" fill="#603813"/>
<path d="M148.542 159.982C147.762 161.282 146.982 162.532 146.152 163.782C146.102 163.782 145.992 163.732 145.942 163.682C146.512 162.742 147.242 161.912 147.872 160.972C148.122 160.612 148.332 160.292 148.542 159.982Z" fill="#603813"/>
<path d="M150.312 156.862C149.952 157.542 149.582 158.272 149.162 158.942C149.522 158.262 149.892 157.592 150.252 156.862H150.312Z" fill="#603813"/>
<path d="M160.832 113.962C160.832 114.382 160.832 114.792 160.782 115.212C160.732 114.172 160.622 113.132 160.522 112.142C160.622 112.142 160.682 112.192 160.782 112.192C160.832 112.762 160.832 113.392 160.832 113.962Z" fill="#603813"/>
<path d="M90.2922 57.9924V198.662C90.2922 201.172 87.6222 202.792 85.4222 201.602C72.0522 194.382 35.4922 170.642 30.5522 124.912C24.5022 68.8024 62.6622 54.6724 62.6622 54.6724C62.6622 54.6724 71.6422 50.4524 84.8822 51.8924C87.9522 52.2324 90.2922 54.8924 90.2922 57.9924Z" fill="currentColor"/>
<path opacity="0.5" d="M90.2922 138.072V198.662C90.2922 201.172 87.6222 202.792 85.4222 201.602C72.0522 194.382 35.4922 170.642 30.5522 124.912C24.5022 68.8025 62.6622 134.762 62.6622 134.762C62.6622 134.762 71.6422 130.542 84.8822 131.982C87.9522 132.322 90.2922 134.972 90.2922 138.072Z" fill="white"/>
<path opacity="0.7" d="M90.2922 156.862V198.662C90.2922 201.172 87.6222 202.792 85.4222 201.602C72.0522 194.382 35.4922 170.642 30.5522 124.912C24.5022 68.8025 62.6622 153.542 62.6622 153.542C62.6622 153.542 71.6422 149.322 84.8822 150.762C87.9522 151.102 90.2922 153.762 90.2922 156.862Z" fill="white"/>
<path d="M95.2022 57.9924V198.662C95.2022 201.172 97.8722 202.792 100.072 201.602C113.442 194.382 150.002 170.642 154.942 124.912C160.992 68.8024 122.832 54.6724 122.832 54.6724C122.832 54.6724 113.852 50.4524 100.612 51.8924C97.5422 52.2324 95.2022 54.8924 95.2022 57.9924Z" fill="currentColor"/>
<path opacity="0.5" d="M95.2022 138.072V198.662C95.2022 201.172 97.8722 202.792 100.072 201.602C113.442 194.382 150.002 170.642 154.942 124.912C160.992 68.8025 122.832 134.762 122.832 134.762C122.832 134.762 113.852 130.542 100.612 131.982C97.5422 132.322 95.2022 134.972 95.2022 138.072Z" fill="white"/>
<path opacity="0.7" d="M95.2022 156.862V198.662C95.2022 201.172 97.8722 202.792 100.072 201.602C113.442 194.382 150.002 170.642 154.942 124.912C160.992 68.8025 122.832 153.542 122.832 153.542C122.832 153.542 113.852 149.322 100.612 150.762C97.5422 151.102 95.2022 153.762 95.2022 156.862Z" fill="white"/>
</svg>
