<svg width="188" height="211" viewBox="0 0 188 211" fill="none" xmlns="http://www.w3.org/2000/svg">
<path d="M184.982 155.042C178.002 147.022 174.462 136.822 173.272 126.412C172.802 122.192 166.032 120.012 160.622 118.342C160.052 132.452 156.312 145.672 150.272 156.872C158.242 160.622 164.012 165.722 158.242 172.022C155.642 174.832 152.932 177.542 149.912 179.992C143.142 185.562 138.302 188.372 148.192 193.842C153.922 197.022 156.832 202.482 158.552 208.572C158.862 209.612 157.352 210.812 156.622 209.772C151.212 201.802 140.692 200.822 135.742 193.112C133.972 190.302 135.532 188.532 137.042 186.342C138.972 183.582 153.802 168.902 149.902 166.302C148.652 165.472 147.392 164.632 146.092 163.802C133.752 182.182 114.642 194.002 93.2521 194.002C71.9621 194.002 53.0121 182.342 40.6221 164.122C39.3022 164.978 37.2421 166.312 37.2421 166.312C33.3421 168.912 48.1721 183.592 50.1021 186.352C51.6121 188.542 53.1721 190.312 51.4021 193.122C46.4521 200.832 35.9921 201.812 30.5221 209.782C29.7921 210.822 28.2821 209.622 28.5921 208.582C30.3121 202.492 33.2221 197.022 38.9521 193.852C48.8421 188.382 44.0021 185.572 37.2321 180.002C34.2621 177.552 31.5021 174.852 28.9021 172.032C23.4321 166.042 29.0021 160.782 36.4021 157.092C30.2621 145.842 26.5121 132.622 25.8321 118.462C20.6221 120.132 14.2721 122.422 13.8621 126.432C12.6621 136.842 9.12213 147.052 2.15213 155.062C1.21213 156.152 -0.557872 154.642 0.172129 153.502C4.39213 146.372 6.83213 139.292 7.77213 131.112C8.29213 126.792 7.25213 122.002 9.64213 118.152C11.5721 115.132 18.7021 114.562 21.7221 113.572C22.7121 113.262 24.4321 112.792 25.7321 112.422C25.9921 95.5025 30.7321 79.8325 38.5421 67.0725C36.2521 66.0325 33.9121 64.9425 31.5621 63.7425C28.1821 62.0225 24.1121 58.6925 23.1821 54.7925C21.6221 47.9725 25.8921 42.1425 27.7121 35.8925C31.2021 23.6625 31.5621 14.0225 28.4421 1.69247C27.9221 -0.387526 30.6321 -0.497526 31.4621 1.07247C37.7621 13.4125 36.3021 24.8125 34.4821 38.1425C33.1821 47.9825 27.5021 55.5825 39.5321 62.2425C40.1021 62.5525 40.5721 62.8125 41.0921 63.1825C43.8521 59.2225 46.9721 55.5325 50.3121 52.2525C49.6921 48.6625 50.0521 45.5325 51.1421 42.7225C53.1221 44.8025 56.4021 45.2225 59.8321 44.4425C62.3321 43.9725 64.9321 42.8325 67.1221 41.3725C68.2121 40.6425 69.3121 39.7025 70.3021 38.7225C73.0121 35.9125 75.0421 32.2625 75.1921 28.4125C75.2421 26.9025 74.8821 25.6525 74.3121 24.6125C74.3621 24.6125 74.4721 24.5625 74.5221 24.5625C77.3321 19.4125 82.8521 15.1925 89.4621 14.5625C94.2521 14.1425 99.6121 14.7725 103.412 17.6325C105.862 19.4525 107.372 21.6425 108.562 23.9325C108.562 23.9825 108.512 23.9825 108.512 24.0325C108.202 24.7625 107.892 25.5925 107.732 26.5325C107.052 30.7525 109.142 34.3425 112.002 37.1025C112.682 37.8325 113.462 38.4525 114.242 39.0325C116.322 40.5925 119.912 41.9525 123.662 42.5225C128.032 43.2525 132.512 42.7825 134.752 40.1325C136.572 44.0325 137.462 48.4625 136.422 52.4725C139.752 55.7525 142.822 59.4525 145.582 63.4025C146.262 63.0425 146.932 62.6225 147.612 62.2525C159.642 55.5925 153.962 47.9925 152.662 38.1525C150.842 24.8225 149.382 13.4225 155.732 1.08247C156.512 -0.477526 159.222 -0.377526 158.702 1.70247C155.582 14.0425 155.942 23.6725 159.432 35.9025C161.252 42.1525 165.522 47.9825 163.962 54.8025C163.072 58.7025 158.962 62.0425 155.582 63.7525C153.082 65.0525 150.632 66.2025 148.142 67.3425C155.852 80.0425 160.482 95.5125 160.742 112.222C162.252 112.642 163.862 113.052 165.432 113.572C168.452 114.562 175.632 115.132 177.512 118.152C179.902 122.002 178.862 126.792 179.382 131.112C180.372 139.282 182.762 146.362 186.982 153.502C187.692 154.622 185.972 156.132 184.982 155.042Z" fill="#231F20"/>
<path d="M108.612 24.0025C108.562 24.0025 108.562 24.0025 108.512 24.0025C108.512 23.9525 108.562 23.9525 108.562 23.9025C108.552 23.9525 108.612 23.9525 108.612 24.0025Z" fill="#231F20"/>
<path d="M63.6621 41.0124C67.1621 39.2324 70.5321 36.3224 72.1521 32.6424C73.1821 30.3124 73.2521 26.8824 71.7621 25.2524C68.3421 26.3124 65.4521 27.8124 62.9621 29.7124C58.4921 32.7624 54.6121 36.1724 52.2821 40.2824C54.3221 43.5324 59.5221 43.1124 63.6621 41.0124Z" fill="#231F20"/>
<path d="M118.182 38.4825C121.512 40.1325 131.522 42.6625 133.672 37.9925C133.282 37.3125 132.862 36.6625 132.422 36.0325C127.482 29.0125 118.832 25.9325 110.672 24.2925C109.532 26.0225 109.522 28.5325 110.482 30.8425C111.892 34.2725 114.882 36.8625 118.182 38.4825Z" fill="#231F20"/>
<path d="M45.5121 105.362C53.3321 100.272 56.3521 86.7425 53.5721 78.0825C50.9921 70.0525 44.0121 68.6225 38.5621 71.7825C34.7121 78.5925 31.7821 86.1625 29.9221 94.2525C30.1021 95.2925 30.3521 96.3225 30.7221 97.3425C32.9321 103.292 38.6021 109.852 45.5121 105.362Z" fill="white"/>
<path d="M78.2121 52.4625C75.3221 52.5925 59.1421 52.4625 49.0021 57.4425C46.0921 60.5725 43.4421 64.0225 41.0421 67.7125C49.0221 65.4425 56.2521 73.9825 56.4721 82.3125C56.7021 91.5425 53.1021 109.023 40.8221 109.033C34.1121 109.033 30.5721 105.413 29.0021 100.363C28.9821 100.683 28.8321 100.983 28.6121 101.213C28.0921 104.703 27.7621 108.273 27.6521 111.913C27.6221 111.923 27.6021 111.923 27.5721 111.933C27.6121 112.183 27.6121 112.443 27.6421 112.703C27.6321 113.303 27.5921 113.903 27.5921 114.513C27.5921 118.683 27.8921 122.773 28.4221 126.753C28.8221 126.493 29.2221 126.233 29.6921 126.043C36.0121 123.533 40.7321 129.943 43.2521 134.913C45.9921 140.293 47.3021 146.973 44.5121 152.543C43.0921 155.383 40.7521 156.663 38.2221 156.663C48.6421 175.473 65.8321 188.623 85.7221 191.353C88.7721 191.773 91.5021 189.403 91.5021 186.323V89.0025C91.4321 88.8825 91.2221 59.3425 78.2121 52.4625ZM86.8621 138.933C84.6121 146.503 75.5321 156.793 67.5321 148.603C60.7721 141.673 62.4121 129.153 65.8721 121.023C68.2821 115.353 73.2521 108.873 79.0621 110.493C90.6221 112.993 89.3521 130.503 86.8621 138.933Z" fill="currentColor"/>
<path d="M82.3721 114.873C82.0821 115.023 81.7221 114.263 81.4521 114.013C69.4221 103.043 59.4921 138.293 69.0021 146.563C82.3921 158.183 93.3621 124.383 82.3721 114.873Z" fill="white"/>
<path d="M43.9021 145.282C43.5021 141.862 42.5321 138.352 40.7921 135.332C39.2821 132.692 36.9021 128.782 33.7021 128.012C31.5221 127.482 29.9221 128.022 28.7721 129.112C30.2321 138.072 32.9921 146.482 36.8221 154.052C41.7021 155.462 44.4621 150.042 43.9021 145.282Z" fill="white"/>
<path d="M106.332 111.953C95.1221 112.363 98.3521 134.003 101.672 139.573C103.852 143.233 107.682 148.453 112.602 148.133C117.512 147.813 120.712 143.633 121.342 138.953C122.332 131.583 117.062 111.953 106.332 111.953Z" fill="white"/>
<path d="M157.432 96.3425C155.502 100.502 152.292 103.802 147.172 104.752C140.212 106.042 132.652 101.332 129.382 95.3325C125.262 87.7925 125.562 77.0425 131.942 70.6825C135.812 66.8325 140.112 65.2125 145.342 66.9525C143.002 63.4325 140.412 60.1325 137.592 57.1325C126.722 55.3725 115.802 53.6325 104.832 52.7825C94.6921 57.3825 93.2921 73.2525 93.6021 84.1225C93.6121 84.1825 93.6421 84.2125 93.6421 84.2725V85.2325C93.6821 86.2725 93.7421 88.6225 93.6421 88.8125V186.552C93.6421 189.562 96.2621 191.912 99.2621 191.602C119.052 189.552 136.312 177.222 147.182 159.182C145.012 159.922 142.612 159.972 140.022 158.942C133.382 156.282 131.922 148.152 133.592 141.982C135.322 135.602 141.142 130.352 147.712 129.352C152.212 128.662 155.512 130.252 157.322 133.252C158.592 127.262 159.272 120.982 159.272 114.522C159.282 108.252 158.632 102.172 157.432 96.3425ZM114.952 150.042C103.312 152.722 96.4021 137.672 96.1721 128.162C95.9821 120.492 99.4821 106.742 109.762 110.272C123.522 112.892 130.712 146.402 114.952 150.042Z" fill="currentColor"/>
<path d="M135.412 142.922C134.372 147.902 135.622 154.012 140.612 156.462C143.772 158.022 146.612 157.522 149.002 155.992C152.142 150.202 154.642 143.902 156.392 137.202C153.872 126.482 137.452 133.152 135.412 142.922Z" fill="white"/>
<path d="M130.082 77.1725C127.942 83.5625 128.392 90.8225 132.902 96.1325C136.182 99.9825 141.282 103.183 146.552 102.573C152.252 101.913 155.222 97.7725 156.662 92.9125C154.812 85.4125 152.022 78.3725 148.442 72.0025C148.002 71.5525 147.532 71.1425 147.022 70.7825C140.482 66.1425 132.542 69.7925 130.082 77.1725Z" fill="white"/>
</svg>
